<svg xmlns="http://www.w3.org/2000/svg" xmlns:xlink="http://www.w3.org/1999/xlink" width="48" zoomAndPan="magnify" viewBox="0 0 36 36.000001" height="48" preserveAspectRatio="xMidYMid meet" version="1.0"><defs><clipPath id="38058c124a"><path d="M 9 30 L 27 30 L 27 35.027344 L 9 35.027344 Z M 9 30 " clip-rule="nonzero"/></clipPath></defs><path stroke-linecap="round" transform="matrix(0.068412, 0, 0, -0.068412, 15.420338, 20.975144)" fill="none" stroke-linejoin="round" d="M 0.0224679 -0.0207379 L 5.218471 -8.642677 C 13.041025 -21.489937 17.209247 -36.963748 17.209247 -52.780153 C 17.209247 -62.486972 15.667576 -72.022493 12.584233 -81.044125 L 5.618163 -101.542642 L 69.797365 -101.542642 L 62.831295 -81.044125 C 59.747953 -72.022493 58.206281 -62.486972 58.206281 -52.780153 C 58.206281 -36.963748 62.374504 -21.489937 70.197058 -8.642677 L 75.393061 -0.0207379 " stroke="#fda31b" stroke-width="15" stroke-opacity="1" stroke-miterlimit="10"/><path stroke-linecap="round" transform="matrix(0.068412, 0, 0, -0.068412, 9.007606, 7.439359)" fill="none" stroke-linejoin="round" d="M 0.00301136 0.0271798 L -47.274906 0.0271798 C -51.386029 0.0271798 -54.583569 -3.512954 -54.183877 -7.566978 C -52.984799 -20.185843 -50.186951 -36.573237 -43.734772 -53.588719 C -32.943073 -82.081087 -15.299503 -104.235473 9.024643 -119.823482 " stroke="#fda31b" stroke-width="15" stroke-opacity="1" stroke-miterlimit="10"/><path stroke-linecap="round" transform="matrix(0.068412, 0, 0, -0.068412, 12.339132, 19.346391)" fill="none" stroke-linejoin="round" d="M 0.0104098 -0.0184944 C -77.472843 19.509341 -111.104115 69.984799 -125.721443 109.497261 C -141.709144 152.664055 -138.454505 191.49133 -138.283208 193.0901 C -137.483823 202.111731 -129.946764 209.020702 -120.868033 209.020702 L -48.694981 209.020702 " stroke="#fda31b" stroke-width="15" stroke-opacity="1" stroke-miterlimit="10"/><path stroke-linecap="round" transform="matrix(0.068412, 0, 0, -0.068412, 26.99229, 7.439359)" fill="none" stroke-linejoin="round" d="M -0.00149498 0.0271798 L 47.276422 0.0271798 C 51.387545 0.0271798 54.585086 -3.512954 54.185393 -7.566978 C 53.443107 -15.789225 52.129832 -23.897274 50.302666 -31.948223 " stroke="#fda31b" stroke-width="15" stroke-opacity="1" stroke-miterlimit="10"/><path stroke-linecap="round" transform="matrix(0.068412, 0, 0, -0.068412, 23.660626, 19.346391)" fill="none" stroke-linejoin="round" d="M -0.00687272 -0.0184944 C 77.47638 19.509341 111.107653 69.984799 125.72498 109.497261 C 141.712681 152.664055 138.458042 191.49133 138.286745 193.0901 C 137.48736 202.111731 129.950301 209.020702 120.87157 209.020702 L 48.698518 209.020702 " stroke="#fda31b" stroke-width="15" stroke-opacity="1" stroke-miterlimit="10"/><path stroke-linecap="round" transform="matrix(0.068412, 0, 0, -0.068412, 29.655431, 11.883057)" fill="none" stroke-linejoin="round" d="M 0.0119746 0.00357498 C -10.722625 -22.607603 -26.310634 -40.650866 -46.637854 -54.069115 " stroke="#fda31b" stroke-width="15" stroke-opacity="1" stroke-miterlimit="10"/><path stroke-linecap="round" transform="matrix(0.068412, 0, 0, -0.068412, 14.567924, 0.512509)" fill="none" stroke-linejoin="round" d="M -0.0221881 0.0115485 L 190.345657 0.0115485 C 192.915109 0.0115485 195.084869 -0.902034 196.912035 -2.7292 C 198.739201 -4.499267 199.595685 -6.669027 199.595685 -9.238479 L 199.595685 -32.477745 C 199.595685 -35.047197 198.739201 -37.216956 196.912035 -38.987023 C 195.084869 -40.814189 192.915109 -41.727772 190.345657 -41.727772 L -90.010108 -41.727772 C -92.57956 -41.727772 -94.749319 -40.814189 -96.576485 -38.987023 C -98.403651 -37.216956 -99.260135 -35.047197 -99.260135 -32.477745 L -99.260135 -9.238479 C -99.260135 -6.669027 -98.403651 -4.499267 -96.576485 -2.7292 C -94.749319 -0.902034 -92.57956 0.0115485 -90.010108 0.0115485 L -35.138032 0.0115485 " stroke="#fda31b" stroke-width="15" stroke-opacity="1" stroke-miterlimit="10"/><path stroke-linecap="round" transform="matrix(0.068412, 0, 0, -0.068412, 17.999948, 21.351341)" fill="none" stroke-linejoin="round" d="M 0.000765016 -0.00323362 C -72.57198 -0.00323362 -131.440981 58.865767 -131.440981 131.438512 L -131.440981 262.880258 L 131.442511 262.880258 L 131.442511 131.438512 C 131.442511 58.865767 72.57351 -0.00323362 0.000765016 -0.00323362 Z M 0.000765016 -0.00323362 " stroke="#fda31b" stroke-width="15" stroke-opacity="1" stroke-miterlimit="10"/><path stroke-linecap="round" transform="matrix(0.068412, 0, 0, -0.068412, 23.462163, 31.219083)" fill="none" stroke-linejoin="round" d="M -0.0179178 0.00486479 L -159.666537 0.00486479 L -159.666537 23.187032 C -159.666537 37.004974 -148.532245 48.196365 -134.714303 48.196365 L -24.970152 48.196365 C -11.15221 48.196365 -0.0179178 37.004974 -0.0179178 23.187032 Z M -0.0179178 0.00486479 " stroke="#fda31b" stroke-width="15" stroke-opacity="1" stroke-miterlimit="10"/><g clip-path="url(#38058c124a)"><path stroke-linecap="round" transform="matrix(0.068412, 0, 0, -0.068412, 25.842627, 34.514621)" fill="none" stroke-linejoin="round" d="M 0.0164171 -0.0146702 L -229.292901 -0.0146702 C -231.062968 -0.0146702 -232.604639 0.613418 -233.860816 1.869595 C -235.116992 3.18287 -235.745081 4.667442 -235.745081 6.494608 L -235.745081 41.72465 C -235.745081 43.494717 -235.116992 45.036389 -233.860816 46.292565 C -232.604639 47.548742 -231.062968 48.17683 -229.292901 48.17683 L 0.0164171 48.17683 C 1.786484 48.17683 3.328155 47.548742 4.584332 46.292565 C 5.840508 45.036389 6.468597 43.494717 6.468597 41.72465 L 6.468597 6.494608 C 6.468597 4.667442 5.840508 3.18287 4.584332 1.869595 C 3.328155 0.613418 1.786484 -0.0146702 0.0164171 -0.0146702 Z M 0.0164171 -0.0146702 " stroke="#fda31b" stroke-width="15" stroke-opacity="1" stroke-miterlimit="10"/></g><path stroke-linecap="round" transform="matrix(0.068412, 0, 0, -0.068412, 18.636452, 8.537027)" fill="none" stroke-linejoin="round" d="M 0.00390573 0.0273493 L 9.596527 -19.500486 C 11.252396 -22.755125 13.821848 -24.63939 17.419081 -25.15328 L 38.945379 -28.293722 C 47.45312 -29.549898 50.821957 -39.999003 44.712371 -45.994391 L 29.124362 -61.182708 C 26.497811 -63.695061 25.527129 -66.778403 26.155217 -70.318537 L 29.809549 -91.730637 C 31.294121 -100.238378 22.386688 -106.690558 14.735431 -102.693633 L -4.449811 -92.587121 C -7.70445 -90.874153 -10.901991 -90.874153 -14.15663 -92.587121 L -33.341872 -102.693633 C -40.993129 -106.690558 -49.900562 -100.238378 -48.41599 -91.730637 L -44.761658 -70.318537 C -44.190669 -66.9497 -45.275549 -63.523764 -47.730803 -61.182708 L -63.318812 -45.994391 C -69.428398 -39.999003 -66.059561 -29.549898 -57.55182 -28.293722 L -36.025522 -25.15328 C -32.428289 -24.63939 -29.858837 -22.755125 -28.202968 -19.500486 L -18.610347 0.0273493 C -14.784718 7.735705 -3.821723 7.735705 0.00390573 0.0273493 Z M 0.00390573 0.0273493 " stroke="#fda31b" stroke-width="15" stroke-opacity="1" stroke-miterlimit="10"/></svg>