<svg xmlns="http://www.w3.org/2000/svg" xmlns:xlink="http://www.w3.org/1999/xlink" width="48" zoomAndPan="magnify" viewBox="0 0 36 36.000001" height="48" preserveAspectRatio="xMidYMid meet" version="1.0"><defs><clipPath id="5c7b33b18c"><path d="M 0.488281 11 L 35.511719 11 L 35.511719 33 L 0.488281 33 Z M 0.488281 11 " clip-rule="nonzero"/></clipPath></defs><g clip-path="url(#5c7b33b18c)"><path stroke-linecap="round" transform="matrix(0.068412, 0, 0, -0.068412, 31.545515, 12.02898)" fill="none" stroke-linejoin="round" d="M 0.0198854 0.0239161 L 35.478323 0.0239161 C 43.757669 0.0239161 50.495343 -6.713758 50.495343 -14.993103 L 50.495343 -272.79479 C 50.495343 -281.074135 43.757669 -287.811809 35.478323 -287.811809 L -431.476758 -287.811809 C -439.756103 -287.811809 -446.493777 -281.074135 -446.493777 -272.79479 L -446.493777 -14.993103 C -446.493777 -6.713758 -439.756103 0.0239161 -431.476758 0.0239161 L -396.01832 0.0239161 " stroke="#fda31b" stroke-width="15" stroke-opacity="1" stroke-miterlimit="10"/></g><path stroke-linecap="round" transform="matrix(0.068412, 0, 0, -0.068412, 31.545515, 23.645604)" fill="none" stroke-linejoin="round" d="M 0.0198854 0.0156746 L 0.0198854 -65.990693 C 0.0198854 -67.932057 -0.665302 -69.587926 -2.035676 -70.9583 C -3.406051 -72.328675 -5.06192 -73.013862 -7.003283 -73.013862 L -128.795309 -73.013862 C -158.77225 -73.013862 -185.894243 -90.657432 -197.999217 -118.007822 L -197.999217 158.008425 C -197.999217 185.58721 -175.616435 207.969992 -147.980551 207.969992 L -7.003283 207.969992 C -5.06192 207.969992 -3.406051 207.284804 -2.035676 205.91443 C -0.665302 204.601155 0.0198854 202.945285 0.0198854 201.003922 L 0.0198854 35.017321 " stroke="#fda31b" stroke-width="15" stroke-opacity="1" stroke-miterlimit="10"/><path stroke-linecap="round" transform="matrix(0.068412, 0, 0, -0.068412, 4.933263, 28.640224)" fill="none" stroke-linejoin="round" d="M 0.00482795 -0.00586079 L 121.796854 -0.00586079 C 151.773794 -0.00586079 178.838689 -17.649431 191.000762 -44.999821 L 191.000762 231.016426 C 191.000762 258.595211 168.61798 280.977993 140.982096 280.977993 L 0.00482795 280.977993 C -1.936536 280.977993 -3.592405 280.292805 -4.962779 278.922431 C -6.333154 277.609156 -7.018341 275.953286 -7.018341 274.011923 L -7.018341 7.017308 C -7.018341 5.075944 -6.333154 3.420075 -4.962779 2.049701 C -3.592405 0.679326 -1.936536 -0.00586079 0.00482795 -0.00586079 Z M 0.00482795 -0.00586079 " stroke="#fda31b" stroke-width="15" stroke-opacity="1" stroke-miterlimit="10"/><path stroke-linecap="round" transform="matrix(0.068412, 0, 0, -0.068412, 12.067536, 6.488637)" fill="none" stroke-linejoin="round" d="M -0.0165174 0.00520283 L -83.495159 0.00520283 L -106.334732 17.705872 C -109.989064 20.50372 -109.989064 25.985218 -106.334732 28.783065 L -83.495159 46.483735 L 272.516694 46.483735 C 277.998191 46.483735 282.509007 42.030018 282.509007 36.491422 L 282.509007 9.997516 C 282.509007 4.45892 277.998191 0.00520283 272.516694 0.00520283 L 34.985129 0.00520283 " stroke="#fda31b" stroke-width="15" stroke-opacity="1" stroke-miterlimit="10"/><path stroke-linecap="round" transform="matrix(0.068412, 0, 0, -0.068412, 28.315445, 6.488637)" fill="none" stroke-linejoin="round" d="M 0.0140503 0.00520283 L 0.0140503 46.483735 L 35.015697 46.483735 C 40.497194 46.483735 45.00801 42.030018 45.00801 36.491422 L 45.00801 9.997516 C 45.00801 4.45892 40.497194 0.00520283 35.015697 0.00520283 Z M 0.0140503 0.00520283 " stroke="#fda31b" stroke-width="15" stroke-opacity="1" stroke-miterlimit="10"/><path stroke-linecap="round" transform="matrix(0.068412, 0, 0, -0.068412, 6.355206, 3.308371)" fill="none" stroke-linejoin="round" d="M 0.00383507 -0.00325171 C 1.545506 -1.773319 10.167445 -11.765632 8.911269 -26.268761 C 7.997686 -37.06046 2.116496 -44.140728 0.00383507 -46.481784 " stroke="#fda31b" stroke-width="15" stroke-opacity="1" stroke-miterlimit="10"/><path stroke-linecap="round" transform="matrix(0.068412, 0, 0, -0.068412, 20.579284, 13.078761)" fill="none" stroke-linejoin="round" d="M -0.0169374 0.00929515 L 122.574474 0.00929515 " stroke="#fda31b" stroke-width="15" stroke-opacity="1" stroke-miterlimit="10"/><path stroke-linecap="round" transform="matrix(0.068412, 0, 0, -0.068412, 20.579284, 16.157299)" fill="none" stroke-linejoin="round" d="M -0.0169374 0.0153385 L 122.574474 0.0153385 " stroke="#fda31b" stroke-width="15" stroke-opacity="1" stroke-miterlimit="10"/><path stroke-linecap="round" transform="matrix(0.068412, 0, 0, -0.068412, 20.579284, 19.235838)" fill="none" stroke-linejoin="round" d="M -0.0169374 0.0213819 L 122.574474 0.0213819 " stroke="#fda31b" stroke-width="15" stroke-opacity="1" stroke-miterlimit="10"/><path stroke-linecap="round" transform="matrix(0.068412, 0, 0, -0.068412, 20.579284, 22.314376)" fill="none" stroke-linejoin="round" d="M -0.0169374 0.0274219 L 122.574474 0.0274219 " stroke="#fda31b" stroke-width="15" stroke-opacity="1" stroke-miterlimit="10"/><path stroke-linecap="round" transform="matrix(0.068412, 0, 0, -0.068412, 20.579284, 25.392914)" fill="none" stroke-linejoin="round" d="M -0.0169374 -0.0236337 L 122.574474 -0.0236337 " stroke="#fda31b" stroke-width="15" stroke-opacity="1" stroke-miterlimit="10"/><path stroke-linecap="round" transform="matrix(0.068412, 0, 0, -0.068412, 7.033716, 13.078761)" fill="none" stroke-linejoin="round" d="M 0.0210514 0.00929515 L 122.612462 0.00929515 " stroke="#fda31b" stroke-width="15" stroke-opacity="1" stroke-miterlimit="10"/><path stroke-linecap="round" transform="matrix(0.068412, 0, 0, -0.068412, 7.033716, 16.157299)" fill="none" stroke-linejoin="round" d="M 0.0210514 0.0153385 L 122.612462 0.0153385 " stroke="#fda31b" stroke-width="15" stroke-opacity="1" stroke-miterlimit="10"/><path stroke-linecap="round" transform="matrix(0.068412, 0, 0, -0.068412, 7.033716, 19.235838)" fill="none" stroke-linejoin="round" d="M 0.0210514 0.0213819 L 122.612462 0.0213819 " stroke="#fda31b" stroke-width="15" stroke-opacity="1" stroke-miterlimit="10"/><path stroke-linecap="round" transform="matrix(0.068412, 0, 0, -0.068412, 7.033716, 22.314376)" fill="none" stroke-linejoin="round" d="M 0.0210514 0.0274219 L 122.612462 0.0274219 " stroke="#fda31b" stroke-width="15" stroke-opacity="1" stroke-miterlimit="10"/><path stroke-linecap="round" transform="matrix(0.068412, 0, 0, -0.068412, 7.033716, 25.392914)" fill="none" stroke-linejoin="round" d="M 0.0210514 -0.0236337 L 122.612462 -0.0236337 " stroke="#fda31b" stroke-width="15" stroke-opacity="1" stroke-miterlimit="10"/></svg>