<svg xmlns="http://www.w3.org/2000/svg" xmlns:xlink="http://www.w3.org/1999/xlink" width="48" zoomAndPan="magnify" viewBox="0 0 36 36.000001" height="48" preserveAspectRatio="xMidYMid meet" version="1.0"><defs><clipPath id="3ce6c5f701"><path d="M 0.488281 0 L 35.511719 0 L 35.511719 35.027344 L 0.488281 35.027344 Z M 0.488281 0 " clip-rule="nonzero"/></clipPath></defs><g clip-path="url(#3ce6c5f701)"><path fill="#fda31b" d="M 11.691406 4.84375 C 11.691406 4.992188 11.640625 5.121094 11.53125 5.230469 C 11.425781 5.335938 11.296875 5.390625 11.144531 5.390625 L 3.726562 5.390625 C 3.578125 5.390625 3.449219 5.335938 3.339844 5.230469 C 3.234375 5.121094 3.179688 4.992188 3.179688 4.84375 C 3.179688 4.691406 3.234375 4.5625 3.339844 4.457031 C 3.449219 4.347656 3.578125 4.296875 3.726562 4.296875 L 11.144531 4.296875 C 11.296875 4.296875 11.425781 4.347656 11.53125 4.457031 C 11.640625 4.5625 11.691406 4.691406 11.691406 4.84375 Z M 11.144531 8.429688 L 3.726562 8.429688 C 3.578125 8.429688 3.449219 8.484375 3.339844 8.589844 C 3.234375 8.699219 3.179688 8.828125 3.179688 8.976562 C 3.179688 9.128906 3.234375 9.257812 3.339844 9.367188 C 3.449219 9.472656 3.578125 9.527344 3.726562 9.527344 L 11.144531 9.527344 C 11.296875 9.527344 11.425781 9.472656 11.53125 9.367188 C 11.640625 9.257812 11.691406 9.128906 11.691406 8.976562 C 11.691406 8.828125 11.640625 8.699219 11.53125 8.589844 C 11.425781 8.484375 11.296875 8.429688 11.144531 8.429688 Z M 11.144531 12.566406 L 3.726562 12.566406 C 3.578125 12.566406 3.449219 12.621094 3.339844 12.726562 C 3.234375 12.835938 3.179688 12.964844 3.179688 13.113281 C 3.179688 13.265625 3.234375 13.394531 3.339844 13.5 C 3.449219 13.609375 3.578125 13.660156 3.726562 13.660156 L 11.144531 13.660156 C 11.296875 13.660156 11.425781 13.609375 11.53125 13.5 C 11.640625 13.394531 11.691406 13.265625 11.691406 13.113281 C 11.691406 12.964844 11.640625 12.835938 11.53125 12.726562 C 11.425781 12.621094 11.296875 12.566406 11.144531 12.566406 Z M 16.535156 5.390625 L 23.953125 5.390625 C 24.105469 5.390625 24.234375 5.335938 24.339844 5.230469 C 24.445312 5.121094 24.5 4.992188 24.5 4.84375 C 24.5 4.691406 24.445312 4.5625 24.339844 4.457031 C 24.234375 4.347656 24.105469 4.296875 23.953125 4.296875 L 16.535156 4.296875 C 16.382812 4.296875 16.253906 4.347656 16.148438 4.457031 C 16.042969 4.5625 15.988281 4.691406 15.988281 4.84375 C 15.988281 4.992188 16.042969 5.121094 16.148438 5.230469 C 16.253906 5.335938 16.382812 5.390625 16.535156 5.390625 Z M 16.535156 9.527344 L 23.953125 9.527344 C 24.105469 9.527344 24.234375 9.472656 24.339844 9.367188 C 24.445312 9.257812 24.5 9.128906 24.5 8.976562 C 24.5 8.828125 24.445312 8.699219 24.339844 8.589844 C 24.234375 8.484375 24.105469 8.429688 23.953125 8.429688 L 16.535156 8.429688 C 16.382812 8.429688 16.253906 8.484375 16.148438 8.589844 C 16.042969 8.699219 15.988281 8.828125 15.988281 8.976562 C 15.988281 9.128906 16.042969 9.257812 16.148438 9.367188 C 16.253906 9.472656 16.382812 9.527344 16.535156 9.527344 Z M 16.535156 13.660156 L 23.953125 13.660156 C 24.105469 13.660156 24.234375 13.609375 24.339844 13.5 C 24.445312 13.394531 24.5 13.265625 24.5 13.113281 C 24.5 12.964844 24.445312 12.835938 24.339844 12.726562 C 24.234375 12.621094 24.105469 12.566406 23.953125 12.566406 L 16.535156 12.566406 C 16.382812 12.566406 16.253906 12.621094 16.148438 12.726562 C 16.042969 12.835938 15.988281 12.964844 15.988281 13.113281 C 15.988281 13.265625 16.042969 13.394531 16.148438 13.5 C 16.253906 13.609375 16.382812 13.660156 16.535156 13.660156 Z M 35.511719 25.066406 L 35.511719 31.546875 C 35.511719 33.464844 33.953125 35.027344 32.03125 35.027344 L 29.953125 35.027344 C 28.035156 35.027344 26.472656 33.464844 26.472656 31.546875 L 26.472656 25.066406 C 26.472656 23.144531 28.035156 21.585938 29.953125 21.585938 L 30.445312 21.585938 L 30.445312 10.714844 C 30.445312 10.058594 29.914062 9.527344 29.257812 9.527344 L 27.195312 9.527344 L 27.195312 17.410156 C 27.195312 17.5625 27.140625 17.691406 27.035156 17.796875 C 26.925781 17.902344 26.796875 17.957031 26.648438 17.957031 L 15.761719 17.957031 C 14.851562 17.957031 14.386719 18.269531 14.386719 18.890625 C 14.386719 19.042969 14.335938 19.171875 14.226562 19.277344 C 14.121094 19.382812 13.992188 19.4375 13.839844 19.4375 C 13.6875 19.4375 13.558594 19.382812 13.453125 19.277344 C 13.347656 19.171875 13.292969 19.042969 13.292969 18.890625 C 13.292969 18.269531 12.832031 17.957031 11.917969 17.957031 L 1.035156 17.957031 C 0.882812 17.957031 0.753906 17.902344 0.648438 17.796875 C 0.539062 17.691406 0.488281 17.5625 0.488281 17.410156 L 0.488281 0.546875 C 0.488281 0.394531 0.539062 0.265625 0.648438 0.160156 C 0.753906 0.0546875 0.882812 0 1.035156 0 L 11.917969 0 C 12.695312 0 13.386719 0.359375 13.839844 0.921875 C 14.292969 0.359375 14.984375 0 15.761719 0 L 26.648438 0 C 26.796875 0 26.925781 0.0546875 27.035156 0.160156 C 27.140625 0.265625 27.195312 0.394531 27.195312 0.546875 L 27.195312 8.429688 L 29.257812 8.429688 C 30.515625 8.429688 31.539062 9.457031 31.539062 10.714844 L 31.539062 21.585938 L 32.03125 21.585938 C 33.953125 21.585938 35.511719 23.144531 35.511719 25.066406 Z M 13.292969 17.136719 L 13.292969 2.46875 C 13.292969 1.710938 12.675781 1.09375 11.917969 1.09375 L 1.582031 1.09375 L 1.582031 16.863281 L 11.917969 16.863281 C 12.453125 16.863281 12.917969 16.957031 13.292969 17.136719 Z M 26.101562 1.09375 L 15.761719 1.09375 C 15.003906 1.09375 14.386719 1.710938 14.386719 2.46875 L 14.386719 17.136719 C 14.765625 16.957031 15.226562 16.863281 15.761719 16.863281 L 26.101562 16.863281 Z M 31.539062 22.679688 L 31.539062 26.136719 L 34.417969 26.136719 L 34.417969 25.066406 C 34.417969 23.75 33.347656 22.679688 32.03125 22.679688 Z M 27.566406 25.066406 L 27.566406 26.136719 L 30.445312 26.136719 L 30.445312 22.679688 L 29.953125 22.679688 C 28.636719 22.679688 27.566406 23.75 27.566406 25.066406 Z M 34.417969 31.546875 L 34.417969 27.234375 L 27.566406 27.234375 L 27.566406 31.546875 C 27.566406 32.863281 28.636719 33.933594 29.953125 33.933594 L 32.03125 33.933594 C 33.347656 33.933594 34.417969 32.863281 34.417969 31.546875 Z M 24.171875 27.414062 L 24.171875 34.480469 C 24.171875 34.632812 24.117188 34.761719 24.011719 34.867188 C 23.90625 34.972656 23.777344 35.027344 23.625 35.027344 L 1.035156 35.027344 C 0.882812 35.027344 0.753906 34.972656 0.648438 34.867188 C 0.539062 34.761719 0.488281 34.632812 0.488281 34.480469 L 0.488281 27.414062 C 0.488281 27.261719 0.539062 27.132812 0.648438 27.023438 C 0.753906 26.917969 0.882812 26.863281 1.035156 26.863281 L 23.625 26.863281 C 23.777344 26.863281 23.90625 26.917969 24.011719 27.023438 C 24.117188 27.132812 24.171875 27.261719 24.171875 27.414062 Z M 1.582031 27.960938 L 1.582031 28.859375 L 23.078125 28.859375 L 23.078125 27.960938 Z M 23.078125 33.933594 L 23.078125 29.953125 L 1.582031 29.953125 L 1.582031 33.933594 L 4.457031 33.933594 L 4.457031 31.8125 C 4.457031 31.660156 4.511719 31.53125 4.617188 31.421875 C 4.722656 31.316406 4.851562 31.261719 5.003906 31.261719 C 5.15625 31.261719 5.285156 31.316406 5.390625 31.421875 C 5.496094 31.53125 5.550781 31.660156 5.550781 31.8125 L 5.550781 33.933594 L 8.121094 33.933594 L 8.121094 31.8125 C 8.121094 31.660156 8.171875 31.53125 8.28125 31.421875 C 8.386719 31.316406 8.515625 31.261719 8.667969 31.261719 C 8.816406 31.261719 8.945312 31.316406 9.054688 31.421875 C 9.160156 31.53125 9.214844 31.660156 9.214844 31.8125 L 9.214844 33.933594 L 11.78125 33.933594 L 11.78125 31.8125 C 11.78125 31.660156 11.835938 31.53125 11.941406 31.421875 C 12.050781 31.316406 12.179688 31.261719 12.328125 31.261719 C 12.480469 31.261719 12.609375 31.316406 12.714844 31.421875 C 12.824219 31.53125 12.875 31.660156 12.875 31.8125 L 12.875 33.933594 L 15.445312 33.933594 L 15.445312 31.8125 C 15.445312 31.660156 15.496094 31.53125 15.605469 31.421875 C 15.710938 31.316406 15.839844 31.261719 15.992188 31.261719 C 16.144531 31.261719 16.273438 31.316406 16.378906 31.421875 C 16.484375 31.53125 16.539062 31.660156 16.539062 31.8125 L 16.539062 33.933594 L 19.105469 33.933594 L 19.105469 31.8125 C 19.105469 31.660156 19.160156 31.53125 19.269531 31.421875 C 19.375 31.316406 19.503906 31.261719 19.65625 31.261719 C 19.804688 31.261719 19.933594 31.316406 20.042969 31.421875 C 20.148438 31.53125 20.203125 31.660156 20.203125 31.8125 L 20.203125 33.933594 Z M 0.488281 24.5 L 0.488281 21.800781 C 0.488281 21.648438 0.539062 21.519531 0.648438 21.414062 C 0.753906 21.308594 0.882812 21.253906 1.035156 21.253906 L 21.285156 21.253906 C 21.382812 21.253906 21.476562 21.277344 21.558594 21.328125 L 23.898438 22.675781 C 23.984375 22.726562 24.050781 22.792969 24.097656 22.878906 C 24.148438 22.960938 24.171875 23.054688 24.171875 23.152344 C 24.171875 23.25 24.148438 23.339844 24.097656 23.425781 C 24.050781 23.507812 23.984375 23.578125 23.898438 23.625 L 21.558594 24.976562 C 21.476562 25.023438 21.382812 25.050781 21.285156 25.050781 L 1.035156 25.050781 C 0.882812 25.050781 0.753906 24.996094 0.648438 24.886719 C 0.539062 24.78125 0.488281 24.652344 0.488281 24.5 Z M 20.484375 22.347656 L 4.339844 22.347656 L 4.339844 23.953125 L 20.484375 23.953125 C 20.347656 23.417969 20.347656 22.882812 20.484375 22.347656 Z M 22.53125 23.152344 L 21.554688 22.585938 C 21.453125 22.964844 21.453125 23.339844 21.554688 23.714844 Z M 1.582031 23.953125 L 3.246094 23.953125 L 3.246094 22.347656 L 1.582031 22.347656 Z M 1.582031 23.953125 " fill-opacity="1" fill-rule="nonzero"/></g></svg>