<svg xmlns="http://www.w3.org/2000/svg" xmlns:xlink="http://www.w3.org/1999/xlink" width="45" zoomAndPan="magnify" viewBox="0 0 33.75 33.749998" height="45" preserveAspectRatio="xMidYMid meet" version="1.0"><path fill="#fda31b" d="M 23.058594 9.410156 C 22.761719 6.550781 20.445312 4.238281 17.589844 3.941406 C 13.792969 3.546875 10.742188 6.503906 10.742188 10.101562 C 10.742188 13.84375 13.402344 14.089844 13.5 17.242188 C 13.15625 17.390625 12.957031 17.734375 12.957031 18.082031 L 12.957031 20.742188 C 12.957031 20.988281 13.054688 21.234375 13.253906 21.429688 C 13.449219 21.628906 13.648438 21.726562 13.894531 21.726562 L 14.433594 21.726562 C 14.683594 22.910156 15.714844 23.796875 16.949219 23.796875 C 18.179688 23.796875 19.214844 22.910156 19.460938 21.726562 L 20.003906 21.726562 C 20.542969 21.726562 20.9375 21.285156 20.9375 20.789062 L 20.9375 18.128906 C 20.9375 17.785156 20.742188 17.441406 20.398438 17.292969 C 20.445312 13.746094 23.550781 13.792969 23.058594 9.410156 Z M 13.941406 18.128906 L 19.902344 18.128906 L 19.902344 18.917969 L 13.941406 18.917969 Z M 16.949219 22.761719 C 16.257812 22.761719 15.667969 22.316406 15.46875 21.675781 L 18.425781 21.675781 C 18.230469 22.269531 17.636719 22.761719 16.949219 22.761719 Z M 13.992188 20.691406 L 13.992188 19.902344 L 19.953125 19.902344 L 19.953125 20.691406 Z M 19.363281 17.097656 L 14.484375 17.097656 C 14.335938 13.5 11.726562 13.5 11.726562 10.101562 C 11.726562 7.09375 14.289062 4.582031 17.488281 4.925781 C 19.902344 5.171875 21.824219 7.09375 22.070312 9.507812 C 22.464844 13.351562 19.511719 13.402344 19.363281 17.097656 Z M 19.363281 17.097656 " fill-opacity="1" fill-rule="nonzero"/><path fill="#fda31b" d="M 18.671875 9.507812 C 19.558594 9.507812 20.25 8.820312 20.25 7.933594 C 20.25 7.046875 19.558594 6.355469 18.671875 6.355469 C 17.785156 6.355469 17.097656 7.046875 17.097656 7.933594 L 17.097656 8.179688 L 15.421875 9.015625 C 15.125 8.71875 14.730469 8.523438 14.289062 8.523438 C 13.402344 8.523438 12.710938 9.214844 12.710938 10.101562 C 12.710938 10.988281 13.402344 11.675781 14.289062 11.675781 C 14.730469 11.675781 15.125 11.480469 15.421875 11.234375 L 17.097656 12.070312 L 17.097656 12.316406 C 17.097656 13.203125 17.785156 13.894531 18.671875 13.894531 C 19.558594 13.894531 20.25 13.203125 20.25 12.316406 C 20.25 11.429688 19.558594 10.742188 18.671875 10.742188 C 18.230469 10.742188 17.835938 10.9375 17.539062 11.183594 L 15.863281 10.347656 C 15.914062 10.148438 15.914062 10.101562 15.863281 9.902344 L 17.539062 9.066406 C 17.835938 9.3125 18.230469 9.507812 18.671875 9.507812 Z M 18.671875 11.675781 C 19.015625 11.675781 19.261719 11.921875 19.261719 12.269531 C 19.261719 12.613281 19.015625 12.859375 18.671875 12.859375 C 18.328125 12.859375 18.082031 12.613281 18.082031 12.269531 C 18.082031 11.921875 18.328125 11.675781 18.671875 11.675781 Z M 14.289062 10.691406 C 13.941406 10.691406 13.695312 10.445312 13.695312 10.101562 C 13.695312 9.753906 13.941406 9.507812 14.289062 9.507812 C 14.632812 9.507812 14.878906 9.753906 14.878906 10.101562 C 14.878906 10.445312 14.632812 10.691406 14.289062 10.691406 Z M 18.671875 7.339844 C 19.015625 7.339844 19.261719 7.585938 19.261719 7.933594 C 19.261719 8.277344 19.015625 8.523438 18.671875 8.523438 C 18.328125 8.523438 18.082031 8.277344 18.082031 7.933594 C 18.082031 7.585938 18.328125 7.339844 18.671875 7.339844 Z M 26.160156 12.808594 C 25.867188 12.808594 25.667969 13.007812 25.667969 13.300781 L 25.667969 15.914062 C 25.667969 16.160156 25.914062 16.40625 26.160156 16.40625 L 28.773438 16.40625 C 29.066406 16.40625 29.265625 16.207031 29.265625 15.914062 C 29.265625 15.617188 29.066406 15.421875 28.773438 15.421875 L 27.34375 15.421875 C 28.179688 14.386719 28.671875 13.15625 28.820312 11.773438 C 28.96875 10 28.425781 8.328125 27.292969 6.945312 C 27.097656 6.75 26.800781 6.699219 26.605469 6.898438 C 26.40625 7.09375 26.359375 7.390625 26.554688 7.585938 C 27.539062 8.71875 27.984375 10.199219 27.886719 11.675781 C 27.785156 12.761719 27.394531 13.792969 26.703125 14.632812 L 26.703125 13.300781 C 26.652344 13.054688 26.40625 12.808594 26.160156 12.808594 Z M 5.222656 15.914062 C 5.222656 16.207031 5.417969 16.40625 5.714844 16.40625 L 8.328125 16.40625 C 8.621094 16.40625 8.820312 16.160156 8.820312 15.914062 L 8.820312 13.300781 C 8.820312 13.007812 8.621094 12.808594 8.328125 12.808594 C 8.03125 12.808594 7.832031 13.007812 7.832031 13.300781 L 7.832031 14.683594 C 6.257812 12.613281 6.257812 9.65625 7.980469 7.585938 C 8.179688 7.390625 8.128906 7.046875 7.933594 6.898438 C 7.734375 6.699219 7.390625 6.75 7.242188 6.945312 C 5.171875 9.410156 5.222656 12.957031 7.191406 15.371094 L 5.765625 15.371094 C 5.46875 15.421875 5.222656 15.667969 5.222656 15.914062 Z M 30.644531 26.851562 C 30.398438 26.800781 30.199219 26.703125 30.054688 26.605469 C 29.265625 26.160156 29.167969 25.273438 29.117188 25.078125 C 29.808594 24.191406 30.25 23.007812 30.25 21.972656 C 30.25 20.003906 28.671875 18.425781 26.703125 18.425781 C 24.730469 18.425781 23.15625 20.003906 23.15625 21.972656 C 23.15625 23.058594 23.597656 24.191406 24.289062 25.078125 C 24.289062 25.324219 24.140625 26.160156 23.351562 26.605469 C 23.15625 26.703125 22.957031 26.753906 22.710938 26.851562 C 22.023438 27.046875 21.039062 27.34375 20.988281 29.214844 L 20.988281 31.53125 C 20.988281 32.121094 21.429688 32.566406 22.023438 32.566406 L 23.746094 32.566406 C 24.042969 32.566406 24.238281 32.367188 24.238281 32.074219 C 24.238281 31.777344 24.042969 31.582031 23.746094 31.582031 L 22.023438 31.582031 C 22.023438 31.582031 21.972656 31.582031 21.972656 31.53125 L 21.972656 29.167969 C 22.023438 28.03125 22.316406 27.933594 22.957031 27.738281 C 23.15625 27.6875 23.351562 27.640625 23.550781 27.539062 L 26.308594 30.300781 C 26.40625 30.398438 26.554688 30.445312 26.652344 30.445312 C 26.753906 30.445312 26.898438 30.398438 27 30.300781 L 29.757812 27.539062 C 29.953125 27.640625 30.152344 27.6875 30.347656 27.738281 C 30.988281 27.933594 31.335938 28.03125 31.335938 29.167969 L 31.335938 31.53125 C 31.335938 31.53125 31.335938 31.582031 31.285156 31.582031 L 26.40625 31.582031 C 26.113281 31.582031 25.914062 31.777344 25.914062 32.074219 C 25.914062 32.367188 26.113281 32.566406 26.40625 32.566406 L 31.285156 32.566406 C 31.875 32.566406 32.320312 32.121094 32.320312 31.53125 L 32.320312 29.167969 C 32.320312 27.292969 31.335938 27.046875 30.644531 26.851562 Z M 26.703125 19.363281 C 28.132812 19.363281 29.265625 20.496094 29.265625 21.925781 C 29.265625 23.453125 28.03125 25.421875 26.703125 25.421875 C 25.371094 25.421875 24.140625 23.453125 24.140625 21.925781 C 24.089844 20.542969 25.273438 19.363281 26.703125 19.363281 Z M 26.703125 29.265625 L 24.4375 27 C 24.78125 26.652344 24.980469 26.210938 25.125 25.867188 C 25.617188 26.210938 26.160156 26.40625 26.753906 26.40625 C 27.34375 26.40625 27.886719 26.210938 28.378906 25.867188 C 28.476562 26.210938 28.671875 26.652344 29.066406 27 Z M 5.664062 32.074219 C 5.664062 32.367188 5.863281 32.566406 6.160156 32.566406 L 10.640625 32.566406 C 11.183594 32.566406 11.628906 32.121094 11.628906 31.582031 L 11.628906 29.414062 C 11.578125 27.6875 10.691406 27.441406 10.050781 27.246094 C 9.851562 27.195312 9.65625 27.144531 9.507812 27.046875 C 8.917969 26.703125 8.71875 26.0625 8.71875 25.765625 C 8.917969 25.472656 9.015625 25.078125 9.066406 24.683594 C 9.113281 24.683594 10.347656 24.730469 10.394531 24.730469 C 10.691406 24.730469 10.886719 24.535156 10.886719 24.238281 L 10.886719 22.316406 C 10.886719 19.855469 8.917969 17.882812 6.453125 17.882812 C 3.992188 17.882812 2.019531 19.855469 2.019531 22.316406 L 2.019531 24.339844 C 2.019531 24.632812 2.21875 24.832031 2.511719 24.832031 L 3.84375 24.832031 C 3.890625 25.125 3.992188 25.421875 4.1875 25.765625 C 4.136719 26.0625 3.992188 26.652344 3.398438 27.046875 C 3.25 27.144531 3.054688 27.195312 2.859375 27.246094 C 2.21875 27.441406 1.28125 27.6875 1.28125 29.414062 L 1.28125 31.582031 C 1.28125 32.121094 1.722656 32.566406 2.265625 32.566406 L 3.84375 32.566406 C 4.136719 32.566406 4.335938 32.367188 4.335938 32.074219 C 4.335938 31.777344 4.136719 31.582031 3.84375 31.582031 L 2.265625 31.582031 L 2.265625 29.460938 C 2.316406 28.425781 2.5625 28.378906 3.152344 28.230469 C 3.300781 28.179688 3.496094 28.132812 3.695312 28.03125 L 6.207031 30.496094 C 6.304688 30.59375 6.453125 30.644531 6.550781 30.644531 C 6.652344 30.644531 6.800781 30.59375 6.898438 30.496094 L 9.359375 28.03125 C 9.558594 28.132812 9.707031 28.179688 9.902344 28.230469 C 10.492188 28.378906 10.742188 28.476562 10.789062 29.460938 L 10.789062 31.582031 L 6.304688 31.582031 C 5.863281 31.582031 5.664062 31.828125 5.664062 32.074219 Z M 7.144531 25.914062 C 6.652344 26.160156 6.109375 26.160156 5.617188 25.914062 C 4.285156 25.226562 4.828125 23.550781 4.730469 22.367188 C 5.8125 22.710938 6.945312 22.710938 8.03125 22.367188 C 7.980469 23.894531 8.328125 25.273438 7.144531 25.914062 Z M 2.90625 22.367188 C 2.90625 20.445312 4.433594 18.917969 6.355469 18.917969 C 8.277344 18.917969 9.804688 20.445312 9.804688 22.367188 L 9.804688 23.746094 L 9.015625 23.746094 L 9.015625 21.675781 C 9.015625 21.53125 8.917969 21.382812 8.820312 21.285156 C 8.671875 21.183594 8.523438 21.183594 8.375 21.234375 C 7.046875 21.777344 5.765625 21.777344 4.484375 21.234375 C 4.238281 21.136719 4.089844 21.183594 3.941406 21.285156 C 3.792969 21.382812 3.746094 21.53125 3.746094 21.675781 L 3.746094 23.894531 L 2.90625 23.894531 Z M 6.355469 29.460938 L 4.335938 27.441406 C 4.582031 27.195312 4.730469 26.898438 4.878906 26.605469 C 5.765625 27.195312 6.945312 27.246094 7.832031 26.605469 C 7.933594 26.898438 8.128906 27.144531 8.375 27.441406 Z M 17.734375 2.265625 L 17.734375 1.429688 C 17.734375 1.132812 17.539062 0.9375 17.242188 0.9375 C 16.949219 0.9375 16.75 1.132812 16.75 1.429688 L 16.75 2.265625 C 16.75 2.5625 16.949219 2.757812 17.242188 2.757812 C 17.539062 2.757812 17.734375 2.511719 17.734375 2.265625 Z M 12.5625 4.335938 C 12.761719 4.136719 12.761719 3.84375 12.5625 3.644531 L 11.972656 3.054688 C 11.773438 2.859375 11.480469 2.859375 11.28125 3.054688 C 11.085938 3.25 11.085938 3.546875 11.28125 3.746094 L 11.875 4.335938 C 12.070312 4.53125 12.367188 4.53125 12.5625 4.335938 Z M 23.203125 3.054688 C 23.007812 2.859375 22.710938 2.859375 22.515625 3.054688 L 21.925781 3.644531 C 21.726562 3.84375 21.726562 4.136719 21.925781 4.335938 C 22.121094 4.53125 22.417969 4.53125 22.613281 4.335938 L 23.203125 3.746094 C 23.402344 3.597656 23.402344 3.25 23.203125 3.054688 Z M 23.203125 3.054688 " fill-opacity="1" fill-rule="nonzero"/></svg>