<svg xmlns="http://www.w3.org/2000/svg" xmlns:xlink="http://www.w3.org/1999/xlink" width="45" zoomAndPan="magnify" viewBox="0 0 33.75 33.749998" height="45" preserveAspectRatio="xMidYMid meet" version="1.0"><path fill="#fda31b" d="M 32.453125 23.554688 C 32.453125 23.347656 32.414062 23.148438 32.335938 22.957031 C 32.253906 22.761719 32.140625 22.59375 31.992188 22.445312 C 31.847656 22.300781 31.675781 22.1875 31.484375 22.105469 C 31.292969 22.027344 31.09375 21.984375 30.882812 21.984375 L 21.046875 21.984375 C 21.820312 21.589844 22.523438 21.097656 23.15625 20.507812 C 23.792969 19.921875 24.335938 19.257812 24.789062 18.519531 C 25.238281 17.777344 25.582031 16.992188 25.820312 16.160156 C 26.054688 15.324219 26.171875 14.476562 26.171875 13.609375 C 26.171875 13.097656 26.125 12.589844 26.039062 12.085938 L 32.175781 8.835938 C 32.367188 8.734375 32.460938 8.574219 32.453125 8.359375 C 32.445312 8.140625 32.34375 7.988281 32.144531 7.898438 L 16.964844 1.09375 C 16.824219 1.027344 16.679688 1.027344 16.535156 1.09375 L 1.355469 7.898438 C 1.160156 7.988281 1.058594 8.140625 1.050781 8.359375 C 1.042969 8.574219 1.132812 8.734375 1.324219 8.835938 L 3.140625 9.800781 L 3.140625 12.113281 C 2.679688 12.230469 2.304688 12.480469 2.011719 12.855469 C 1.71875 13.230469 1.570312 13.65625 1.570312 14.132812 L 1.570312 15.703125 C 1.570312 15.847656 1.621094 15.972656 1.722656 16.074219 C 1.824219 16.175781 1.949219 16.226562 2.09375 16.226562 L 5.234375 16.226562 C 5.378906 16.226562 5.503906 16.175781 5.605469 16.074219 C 5.707031 15.972656 5.757812 15.847656 5.757812 15.703125 L 5.757812 14.132812 C 5.757812 13.65625 5.609375 13.230469 5.316406 12.855469 C 5.023438 12.480469 4.648438 12.230469 4.1875 12.113281 L 4.1875 10.355469 L 7.464844 12.085938 C 7.375 12.589844 7.332031 13.097656 7.328125 13.609375 C 7.328125 14.476562 7.449219 15.324219 7.683594 16.160156 C 7.917969 16.992188 8.261719 17.777344 8.714844 18.519531 C 9.167969 19.257812 9.710938 19.921875 10.34375 20.507812 C 10.980469 21.097656 11.683594 21.589844 12.453125 21.984375 L 6.28125 21.984375 C 5.9375 21.984375 5.597656 22.019531 5.261719 22.085938 C 4.921875 22.152344 4.597656 22.253906 4.277344 22.382812 C 3.960938 22.515625 3.660156 22.675781 3.375 22.867188 C 3.085938 23.058594 2.824219 23.277344 2.582031 23.519531 C 2.335938 23.761719 2.121094 24.027344 1.929688 24.3125 C 1.738281 24.597656 1.578125 24.898438 1.445312 25.21875 C 1.3125 25.535156 1.214844 25.863281 1.148438 26.199219 C 1.082031 26.535156 1.046875 26.875 1.046875 27.21875 C 1.046875 27.5625 1.082031 27.90625 1.148438 28.242188 C 1.214844 28.578125 1.3125 28.90625 1.445312 29.222656 C 1.578125 29.539062 1.738281 29.84375 1.929688 30.128906 C 2.121094 30.414062 2.335938 30.679688 2.582031 30.921875 C 2.824219 31.164062 3.085938 31.382812 3.375 31.574219 C 3.660156 31.761719 3.960938 31.925781 4.277344 32.054688 C 4.597656 32.1875 4.921875 32.289062 5.261719 32.355469 C 5.597656 32.421875 5.9375 32.453125 6.28125 32.453125 L 30.882812 32.453125 C 31.09375 32.453125 31.292969 32.414062 31.484375 32.335938 C 31.679688 32.253906 31.847656 32.140625 31.996094 31.996094 C 32.140625 31.847656 32.253906 31.679688 32.335938 31.484375 C 32.414062 31.292969 32.453125 31.09375 32.453125 30.882812 C 32.453125 30.675781 32.414062 30.476562 32.335938 30.285156 C 32.253906 30.089844 32.140625 29.921875 31.996094 29.773438 C 31.847656 29.625 31.679688 29.511719 31.484375 29.433594 C 31.292969 29.355469 31.09375 29.3125 30.882812 29.3125 L 30.882812 25.125 C 31.09375 25.125 31.292969 25.085938 31.484375 25.003906 C 31.675781 24.925781 31.847656 24.8125 31.992188 24.664062 C 32.140625 24.519531 32.253906 24.347656 32.335938 24.15625 C 32.414062 23.964844 32.453125 23.765625 32.453125 23.554688 Z M 16.75 21.984375 C 15.253906 21.984375 13.859375 21.605469 12.5625 20.855469 L 12.5625 16.441406 L 14.441406 14.5625 L 15.417969 14.074219 C 15.523438 14.019531 15.605469 13.9375 15.65625 13.828125 C 15.707031 13.71875 15.71875 13.601562 15.6875 13.484375 L 15.164062 11.390625 C 15.113281 11.1875 14.988281 11.058594 14.78125 11.007812 L 12.6875 10.484375 C 12.605469 10.464844 12.519531 10.464844 12.4375 10.484375 L 10.441406 10.980469 L 8.882812 10.761719 C 9.34375 9.5 10.0625 8.410156 11.046875 7.496094 L 12.773438 8.792969 C 12.796875 8.8125 12.824219 8.828125 12.851562 8.839844 L 14.945312 9.886719 C 14.992188 9.914062 15.042969 9.929688 15.097656 9.941406 L 18.238281 10.464844 C 18.265625 10.46875 18.292969 10.46875 18.320312 10.46875 C 18.507812 10.46875 18.652344 10.390625 18.753906 10.234375 L 19.703125 8.816406 L 21.105469 8.347656 C 21.183594 8.324219 21.25 8.28125 21.308594 8.222656 L 22.238281 7.296875 C 22.695312 7.691406 23.101562 8.132812 23.460938 8.621094 L 21.660156 10.0625 C 21.644531 10.070312 21.628906 10.085938 21.613281 10.097656 L 20.121094 11.59375 L 17.605469 12.601562 C 17.570312 12.613281 17.539062 12.628906 17.511719 12.652344 L 15.941406 13.699219 C 15.8125 13.78125 15.734375 13.898438 15.710938 14.050781 L 15.1875 17.191406 C 15.144531 17.445312 15.238281 17.625 15.46875 17.742188 L 17.273438 18.644531 L 17.273438 19.890625 C 17.273438 20.035156 17.324219 20.160156 17.425781 20.261719 C 17.53125 20.363281 17.652344 20.414062 17.796875 20.414062 L 19.890625 20.414062 C 19.996094 20.414062 20.09375 20.386719 20.179688 20.328125 L 21.5625 19.410156 L 22.535156 19.652344 C 21.757812 20.398438 20.871094 20.976562 19.871094 21.378906 C 18.871094 21.785156 17.828125 21.984375 16.75 21.984375 Z M 11.878906 6.816406 C 12.566406 6.316406 13.316406 5.933594 14.125 5.664062 C 14.929688 5.394531 15.761719 5.25 16.613281 5.234375 C 17.464844 5.222656 18.296875 5.332031 19.113281 5.574219 C 19.929688 5.816406 20.691406 6.171875 21.398438 6.648438 L 20.65625 7.398438 L 19.199219 7.878906 C 19.085938 7.917969 18.996094 7.984375 18.933594 8.085938 L 18.074219 9.375 L 15.34375 8.917969 L 13.363281 7.929688 Z M 23.332031 18.773438 L 21.585938 18.335938 C 21.4375 18.296875 21.300781 18.324219 21.175781 18.410156 L 19.734375 19.367188 L 18.320312 19.367188 L 18.320312 18.320312 C 18.324219 18.105469 18.226562 17.949219 18.035156 17.855469 L 16.285156 16.980469 L 16.710938 14.441406 L 18.042969 13.550781 L 20.609375 12.527344 C 20.675781 12.5 20.734375 12.460938 20.785156 12.410156 L 22.335938 10.863281 L 24.039062 9.496094 C 24.449219 10.214844 24.742188 10.980469 24.925781 11.789062 C 25.105469 12.597656 25.164062 13.414062 25.101562 14.242188 C 25.039062 15.066406 24.855469 15.867188 24.554688 16.640625 C 24.253906 17.410156 23.84375 18.121094 23.332031 18.773438 Z M 4.710938 14.132812 L 4.710938 15.179688 L 2.617188 15.179688 L 2.617188 14.132812 C 2.617188 13.996094 2.644531 13.859375 2.695312 13.734375 C 2.75 13.605469 2.824219 13.492188 2.925781 13.394531 C 3.023438 13.296875 3.136719 13.21875 3.261719 13.167969 C 3.390625 13.113281 3.527344 13.085938 3.664062 13.085938 C 3.804688 13.085938 3.9375 13.113281 4.066406 13.167969 C 4.191406 13.21875 4.304688 13.296875 4.40625 13.394531 C 4.503906 13.492188 4.578125 13.605469 4.632812 13.734375 C 4.683594 13.859375 4.710938 13.996094 4.710938 14.132812 Z M 2.765625 8.410156 L 16.75 2.144531 L 30.738281 8.410156 L 25.808594 11.03125 C 25.667969 10.539062 25.492188 10.066406 25.273438 9.605469 C 25.058594 9.144531 24.804688 8.703125 24.519531 8.285156 C 24.230469 7.863281 23.914062 7.472656 23.5625 7.101562 C 23.210938 6.734375 22.832031 6.398438 22.425781 6.089844 C 22.019531 5.785156 21.59375 5.511719 21.140625 5.273438 C 20.691406 5.039062 20.226562 4.839844 19.742188 4.675781 C 19.261719 4.515625 18.769531 4.394531 18.265625 4.3125 C 17.765625 4.230469 17.257812 4.1875 16.75 4.1875 C 16.242188 4.1875 15.738281 4.230469 15.234375 4.3125 C 14.734375 4.394531 14.242188 4.515625 13.757812 4.675781 C 13.277344 4.839844 12.808594 5.039062 12.359375 5.273438 C 11.910156 5.511719 11.480469 5.785156 11.078125 6.089844 C 10.671875 6.398438 10.292969 6.734375 9.941406 7.101562 C 9.589844 7.472656 9.269531 7.863281 8.984375 8.285156 C 8.695312 8.703125 8.445312 9.144531 8.226562 9.605469 C 8.011719 10.066406 7.835938 10.539062 7.695312 11.03125 Z M 11.667969 15.855469 C 11.566406 15.960938 11.515625 16.082031 11.515625 16.226562 L 11.515625 20.136719 C 10.523438 19.34375 9.753906 18.375 9.203125 17.230469 C 8.652344 16.085938 8.375 14.878906 8.375 13.609375 C 8.375 12.992188 8.445312 12.378906 8.585938 11.777344 L 10.394531 12.035156 C 10.464844 12.027344 10.527344 12.027344 10.59375 12.023438 L 12.5625 11.53125 L 14.226562 11.945312 L 14.574219 13.328125 L 13.898438 13.667969 C 13.855469 13.699219 13.808594 13.730469 13.761719 13.761719 Z M 7.328125 24.078125 C 6.910156 24.078125 6.511719 24.160156 6.125 24.320312 C 5.742188 24.476562 5.402344 24.703125 5.109375 25 C 4.8125 25.292969 4.585938 25.632812 4.425781 26.019531 C 4.265625 26.402344 4.1875 26.804688 4.1875 27.21875 C 4.1875 27.636719 4.265625 28.039062 4.425781 28.421875 C 4.585938 28.808594 4.8125 29.148438 5.109375 29.441406 C 5.402344 29.734375 5.742188 29.960938 6.125 30.121094 C 6.511719 30.28125 6.910156 30.359375 7.328125 30.359375 L 30.882812 30.359375 C 31.027344 30.359375 31.152344 30.414062 31.253906 30.515625 C 31.355469 30.617188 31.40625 30.738281 31.40625 30.882812 C 31.40625 31.027344 31.355469 31.152344 31.253906 31.253906 C 31.152344 31.355469 31.027344 31.40625 30.882812 31.40625 L 6.28125 31.40625 C 6.007812 31.40625 5.734375 31.382812 5.464844 31.328125 C 5.195312 31.273438 4.933594 31.195312 4.679688 31.089844 C 4.425781 30.984375 4.183594 30.855469 3.953125 30.703125 C 3.726562 30.550781 3.515625 30.375 3.320312 30.179688 C 3.125 29.988281 2.953125 29.777344 2.800781 29.546875 C 2.648438 29.316406 2.519531 29.078125 2.414062 28.824219 C 2.308594 28.570312 2.226562 28.308594 2.175781 28.039062 C 2.121094 27.765625 2.09375 27.496094 2.09375 27.21875 C 2.09375 26.945312 2.121094 26.671875 2.175781 26.402344 C 2.226562 26.132812 2.308594 25.871094 2.414062 25.617188 C 2.519531 25.363281 2.648438 25.121094 2.800781 24.894531 C 2.953125 24.664062 3.125 24.453125 3.320312 24.257812 C 3.515625 24.066406 3.726562 23.890625 3.953125 23.738281 C 4.183594 23.585938 4.425781 23.457031 4.679688 23.351562 C 4.933594 23.246094 5.195312 23.167969 5.464844 23.113281 C 5.734375 23.058594 6.007812 23.03125 6.28125 23.03125 L 30.882812 23.03125 C 31.027344 23.03125 31.152344 23.082031 31.253906 23.1875 C 31.355469 23.289062 31.40625 23.410156 31.40625 23.554688 C 31.40625 23.699219 31.355469 23.824219 31.253906 23.925781 C 31.152344 24.027344 31.027344 24.078125 30.882812 24.078125 Z M 29.835938 25.125 L 29.835938 29.3125 L 7.328125 29.3125 C 7.050781 29.3125 6.785156 29.261719 6.527344 29.15625 C 6.269531 29.046875 6.042969 28.898438 5.847656 28.699219 C 5.652344 28.503906 5.5 28.277344 5.394531 28.023438 C 5.289062 27.765625 5.234375 27.496094 5.234375 27.21875 C 5.234375 26.941406 5.289062 26.675781 5.394531 26.417969 C 5.5 26.164062 5.652344 25.9375 5.847656 25.738281 C 6.042969 25.542969 6.269531 25.390625 6.527344 25.285156 C 6.785156 25.179688 7.050781 25.125 7.328125 25.125 Z M 29.835938 25.125 " fill-opacity="1" fill-rule="nonzero"/><path fill="#fda31b" d="M 7.328125 26.171875 L 7.328125 27.21875 L 23.03125 27.21875 L 23.03125 28.789062 C 23.03125 29 23.125 29.15625 23.308594 29.25 C 23.492188 29.351562 23.671875 29.34375 23.84375 29.226562 L 25.125 28.371094 L 26.410156 29.226562 C 26.582031 29.339844 26.761719 29.347656 26.945312 29.25 C 27.128906 29.152344 27.21875 29 27.21875 28.789062 L 27.21875 27.21875 L 28.789062 27.21875 L 28.789062 26.171875 Z M 26.171875 27.8125 L 25.414062 27.308594 C 25.222656 27.179688 25.03125 27.179688 24.839844 27.308594 L 24.078125 27.8125 L 24.078125 27.21875 L 26.171875 27.21875 Z M 26.171875 27.8125 " fill-opacity="1" fill-rule="nonzero"/></svg>