<svg xmlns="http://www.w3.org/2000/svg" xmlns:xlink="http://www.w3.org/1999/xlink" width="48" zoomAndPan="magnify" viewBox="0 0 36 36.000001" height="48" preserveAspectRatio="xMidYMid meet" version="1.0"><defs><clipPath id="1976cc8849"><path d="M 0.488281 0 L 35.511719 0 L 35.511719 35.027344 L 0.488281 35.027344 Z M 0.488281 0 " clip-rule="nonzero"/></clipPath></defs><path fill="#fda31b" d="M 32.089844 27.234375 C 32.800781 26.257812 33.15625 25.167969 33.160156 23.960938 C 33.167969 23.800781 33.117188 23.660156 33.011719 23.542969 C 32.902344 23.421875 32.765625 23.359375 32.605469 23.351562 C 32.445312 23.34375 32.304688 23.394531 32.1875 23.503906 C 32.070312 23.613281 32.003906 23.746094 31.996094 23.90625 C 32 24.863281 31.726562 25.730469 31.171875 26.511719 C 30.035156 27.949219 27.875 28.023438 27.453125 28.023438 C 27.289062 28.023438 27.152344 28.078125 27.039062 28.191406 C 26.925781 28.304688 26.867188 28.445312 26.867188 28.605469 C 26.867188 28.765625 26.925781 28.902344 27.039062 29.019531 C 27.152344 29.132812 27.289062 29.1875 27.453125 29.1875 C 27.96875 29.1875 30.617188 29.09375 32.089844 27.234375 Z M 20.335938 19.847656 C 20.335938 19.6875 20.277344 19.550781 20.164062 19.4375 C 20.050781 19.320312 19.914062 19.265625 19.75 19.265625 C 19.589844 19.265625 19.453125 19.320312 19.339844 19.4375 C 19.222656 19.550781 19.167969 19.6875 19.167969 19.847656 C 19.167969 20.160156 19.226562 20.457031 19.34375 20.742188 C 19.464844 21.027344 19.632812 21.28125 19.851562 21.5 C 20.070312 21.71875 20.324219 21.886719 20.609375 22.007812 C 20.894531 22.125 21.191406 22.183594 21.503906 22.183594 L 21.503906 22.765625 C 21.503906 22.929688 21.558594 23.066406 21.671875 23.179688 C 21.789062 23.292969 21.925781 23.351562 22.085938 23.351562 C 22.246094 23.351562 22.386719 23.292969 22.5 23.179688 C 22.613281 23.066406 22.671875 22.929688 22.671875 22.765625 L 22.671875 22.183594 C 22.980469 22.183594 23.277344 22.125 23.5625 22.007812 C 23.851562 21.886719 24.101562 21.71875 24.320312 21.5 C 24.539062 21.28125 24.710938 21.027344 24.828125 20.742188 C 24.945312 20.457031 25.003906 20.160156 25.003906 19.847656 C 25.003906 19.539062 24.945312 19.242188 24.828125 18.953125 C 24.710938 18.667969 24.539062 18.417969 24.320312 18.199219 C 24.101562 17.976562 23.851562 17.808594 23.5625 17.691406 C 23.277344 17.574219 22.980469 17.511719 22.671875 17.511719 L 22.671875 15.179688 C 22.824219 15.179688 22.972656 15.207031 23.117188 15.265625 C 23.261719 15.328125 23.386719 15.410156 23.496094 15.519531 C 23.605469 15.628906 23.691406 15.757812 23.75 15.898438 C 23.808594 16.042969 23.835938 16.191406 23.835938 16.347656 C 23.835938 16.507812 23.894531 16.644531 24.007812 16.757812 C 24.121094 16.871094 24.261719 16.929688 24.421875 16.929688 C 24.582031 16.929688 24.71875 16.871094 24.835938 16.757812 C 24.949219 16.644531 25.003906 16.507812 25.003906 16.347656 C 25.003906 16.035156 24.945312 15.738281 24.828125 15.453125 C 24.710938 15.167969 24.539062 14.914062 24.320312 14.695312 C 24.101562 14.476562 23.851562 14.308594 23.5625 14.1875 C 23.277344 14.070312 22.980469 14.011719 22.671875 14.011719 L 22.671875 13.425781 C 22.671875 13.265625 22.613281 13.128906 22.5 13.015625 C 22.386719 12.898438 22.246094 12.84375 22.085938 12.84375 C 21.925781 12.84375 21.789062 12.898438 21.671875 13.015625 C 21.558594 13.128906 21.503906 13.265625 21.503906 13.425781 L 21.503906 14.011719 C 21.191406 14.011719 20.894531 14.070312 20.609375 14.1875 C 20.324219 14.308594 20.070312 14.476562 19.851562 14.695312 C 19.632812 14.914062 19.464844 15.167969 19.34375 15.453125 C 19.226562 15.738281 19.167969 16.035156 19.167969 16.347656 C 19.167969 16.65625 19.226562 16.953125 19.34375 17.238281 C 19.464844 17.527344 19.632812 17.777344 19.851562 17.996094 C 20.070312 18.214844 20.324219 18.386719 20.609375 18.503906 C 20.894531 18.621094 21.191406 18.679688 21.503906 18.679688 L 21.503906 21.015625 C 21.347656 21.015625 21.199219 20.988281 21.054688 20.925781 C 20.914062 20.867188 20.785156 20.785156 20.675781 20.675781 C 20.566406 20.566406 20.484375 20.4375 20.425781 20.296875 C 20.363281 20.152344 20.335938 20.003906 20.335938 19.847656 Z M 20.335938 16.347656 C 20.335938 16.191406 20.363281 16.042969 20.425781 15.898438 C 20.484375 15.757812 20.566406 15.628906 20.675781 15.519531 C 20.785156 15.410156 20.914062 15.328125 21.054688 15.265625 C 21.199219 15.207031 21.347656 15.179688 21.503906 15.179688 L 21.503906 17.511719 C 21.347656 17.511719 21.199219 17.484375 21.054688 17.425781 C 20.914062 17.367188 20.785156 17.28125 20.675781 17.171875 C 20.566406 17.0625 20.484375 16.9375 20.425781 16.792969 C 20.363281 16.648438 20.335938 16.5 20.335938 16.347656 Z M 22.671875 18.679688 C 22.824219 18.679688 22.972656 18.710938 23.117188 18.769531 C 23.261719 18.828125 23.386719 18.914062 23.496094 19.023438 C 23.605469 19.132812 23.691406 19.257812 23.75 19.402344 C 23.808594 19.542969 23.835938 19.695312 23.835938 19.847656 C 23.835938 20.003906 23.808594 20.152344 23.75 20.296875 C 23.691406 20.4375 23.605469 20.566406 23.496094 20.675781 C 23.386719 20.785156 23.261719 20.867188 23.117188 20.925781 C 22.972656 20.988281 22.824219 21.015625 22.671875 21.015625 Z M 22.671875 18.679688 " fill-opacity="1" fill-rule="nonzero"/><g clip-path="url(#1976cc8849)"><path fill="#fda31b" d="M 35.027344 19.714844 C 33.585938 13.601562 30.390625 10.058594 28.078125 8.210938 C 30.976562 8.429688 31.90625 9.632812 31.933594 9.667969 C 32.027344 9.800781 32.152344 9.878906 32.308594 9.910156 C 32.464844 9.9375 32.609375 9.90625 32.742188 9.816406 C 32.871094 9.730469 32.953125 9.605469 32.984375 9.449219 C 33.015625 9.292969 32.988281 9.148438 32.902344 9.015625 C 32.859375 8.953125 32.050781 7.792969 29.691406 7.265625 C 30.324219 6.742188 30.648438 6.074219 30.667969 5.253906 C 30.648438 4.9375 30.582031 4.632812 30.464844 4.339844 C 30.351562 4.046875 30.191406 3.777344 29.992188 3.53125 C 29.792969 3.289062 29.558594 3.082031 29.292969 2.910156 C 29.027344 2.738281 28.742188 2.613281 28.4375 2.535156 C 28.488281 2.113281 28.511719 1.6875 28.515625 1.265625 C 28.511719 1.066406 28.46875 0.882812 28.375 0.710938 C 28.28125 0.539062 28.152344 0.398438 27.988281 0.292969 C 27.828125 0.183594 27.648438 0.121094 27.453125 0.101562 C 27.257812 0.0859375 27.070312 0.113281 26.890625 0.191406 C 26.59375 0.324219 26.320312 0.5 26.078125 0.710938 C 25.777344 1.019531 25.414062 1.171875 24.984375 1.167969 C 24.558594 1.171875 24.195312 1.019531 23.894531 0.710938 C 23.648438 0.484375 23.367188 0.308594 23.050781 0.183594 C 22.738281 0.0625 22.410156 0 22.074219 0 C 21.738281 0 21.410156 0.0625 21.097656 0.183594 C 20.78125 0.308594 20.5 0.484375 20.253906 0.710938 C 19.953125 1.019531 19.589844 1.171875 19.160156 1.167969 C 18.730469 1.171875 18.367188 1.019531 18.070312 0.710938 C 17.824219 0.5 17.554688 0.324219 17.257812 0.191406 C 17.078125 0.117188 16.890625 0.0859375 16.699219 0.105469 C 16.503906 0.121094 16.324219 0.1875 16.160156 0.292969 C 16 0.402344 15.871094 0.542969 15.777344 0.714844 C 15.6875 0.886719 15.640625 1.070312 15.636719 1.265625 C 15.636719 2.71875 15.925781 5.308594 17.746094 7.046875 C 16.785156 7.628906 15.898438 8.304688 15.082031 9.074219 L 15.082031 4.671875 C 15.082031 3.339844 13.199219 2.335938 10.703125 2.335938 C 8.207031 2.335938 6.324219 3.339844 6.324219 4.671875 L 6.324219 10.550781 C 4.277344 10.757812 2.820312 11.675781 2.820312 12.84375 L 2.820312 27.691406 C 1.410156 28.070312 0.488281 28.839844 0.488281 29.773438 L 0.488281 32.691406 C 0.488281 34.023438 2.371094 35.027344 4.863281 35.027344 C 7.097656 35.027344 8.835938 34.222656 9.175781 33.101562 C 10.203125 33.644531 11.292969 33.894531 12.453125 33.859375 C 14.949219 33.859375 16.832031 32.855469 16.832031 31.523438 L 16.832031 23.933594 C 16.832031 22.605469 14.949219 21.601562 12.453125 21.601562 C 12.164062 21.601562 11.867188 21.613281 11.578125 21.644531 L 11.578125 12.84375 C 11.578125 11.566406 9.839844 10.589844 7.492188 10.515625 L 7.492188 6.285156 C 8.5 6.800781 9.570312 7.039062 10.703125 7.003906 C 11.835938 7.039062 12.90625 6.800781 13.914062 6.285156 L 13.914062 10.269531 C 13.507812 10.722656 13.121094 11.195312 12.761719 11.6875 C 12.675781 11.816406 12.644531 11.957031 12.671875 12.113281 C 12.699219 12.265625 12.773438 12.390625 12.902344 12.484375 C 13.027344 12.574219 13.167969 12.613281 13.324219 12.589844 C 13.476562 12.570312 13.605469 12.5 13.703125 12.375 C 14.078125 11.867188 14.480469 11.382812 14.90625 10.917969 L 14.917969 10.902344 C 16.042969 9.65625 17.332031 8.621094 18.792969 7.796875 C 19.078125 7.933594 19.382812 8.035156 19.695312 8.097656 L 18.191406 9.5 C 18.070312 9.609375 18.011719 9.746094 18.003906 9.90625 C 18 10.070312 18.050781 10.207031 18.164062 10.324219 C 18.273438 10.441406 18.40625 10.503906 18.570312 10.511719 C 18.730469 10.515625 18.871094 10.464844 18.988281 10.355469 L 21.324219 8.175781 L 21.507812 8.175781 L 21.507812 9.925781 C 21.507812 10.089844 21.566406 10.226562 21.679688 10.339844 C 21.792969 10.453125 21.929688 10.511719 22.09375 10.511719 C 22.253906 10.511719 22.390625 10.453125 22.503906 10.339844 C 22.617188 10.226562 22.675781 10.089844 22.675781 9.925781 L 22.675781 8.171875 L 22.863281 8.171875 L 25.199219 10.351562 C 25.316406 10.460938 25.453125 10.511719 25.617188 10.507812 C 25.777344 10.5 25.914062 10.441406 26.023438 10.324219 C 26.132812 10.203125 26.183594 10.066406 26.179688 9.90625 C 26.175781 9.742188 26.113281 9.609375 25.996094 9.496094 L 24.480469 8.085938 C 24.792969 8.027344 25.089844 7.925781 25.375 7.785156 C 26.917969 8.621094 31.988281 11.917969 33.890625 19.980469 C 34.714844 23.492188 34.417969 26.175781 33.003906 27.960938 C 31.199219 30.238281 28.0625 30.355469 27.453125 30.355469 L 19.167969 30.355469 C 19.007812 30.355469 18.867188 30.414062 18.753906 30.527344 C 18.640625 30.640625 18.582031 30.78125 18.582031 30.941406 C 18.582031 31.101562 18.640625 31.238281 18.753906 31.351562 C 18.867188 31.46875 19.007812 31.523438 19.167969 31.523438 L 27.453125 31.523438 C 28.445312 31.523438 31.832031 31.320312 33.917969 28.683594 C 35.566406 26.609375 35.9375 23.589844 35.027344 19.714844 Z M 4.863281 28.605469 C 6.796875 28.605469 8.074219 29.304688 8.074219 29.773438 C 8.074219 30.238281 6.796875 30.941406 4.863281 30.941406 C 2.933594 30.941406 1.652344 30.238281 1.652344 29.773438 C 1.652344 29.304688 2.933594 28.605469 4.863281 28.605469 Z M 4.863281 33.859375 C 2.933594 33.859375 1.652344 33.160156 1.652344 32.691406 L 1.652344 31.390625 C 2.664062 31.902344 3.734375 32.140625 4.863281 32.109375 C 5.996094 32.140625 7.066406 31.902344 8.074219 31.390625 L 8.074219 32.691406 C 8.074219 33.160156 6.796875 33.859375 4.863281 33.859375 Z M 12.453125 32.691406 C 10.523438 32.691406 9.242188 31.992188 9.242188 31.523438 L 9.242188 25.550781 C 10.253906 26.066406 11.324219 26.304688 12.453125 26.269531 C 13.585938 26.304688 14.65625 26.066406 15.664062 25.550781 L 15.664062 31.523438 C 15.664062 31.992188 14.382812 32.691406 12.453125 32.691406 Z M 15.664062 23.933594 C 15.664062 24.402344 14.382812 25.101562 12.453125 25.101562 C 10.523438 25.101562 9.242188 24.402344 9.242188 23.933594 C 9.242188 23.46875 10.523438 22.765625 12.453125 22.765625 C 14.382812 22.765625 15.664062 23.46875 15.664062 23.933594 Z M 8.074219 23.933594 L 8.074219 28.15625 C 7.066406 27.644531 5.996094 27.402344 4.863281 27.4375 C 4.574219 27.4375 4.28125 27.453125 3.988281 27.480469 L 3.988281 14.460938 C 5 14.972656 6.070312 15.210938 7.199219 15.179688 C 8.332031 15.210938 9.402344 14.972656 10.410156 14.460938 L 10.410156 21.855469 C 9 22.234375 8.074219 23 8.074219 23.933594 Z M 10.410156 12.84375 C 10.410156 13.308594 9.128906 14.011719 7.199219 14.011719 C 5.269531 14.011719 3.988281 13.308594 3.988281 12.84375 C 3.988281 12.375 5.269531 11.675781 7.199219 11.675781 C 9.128906 11.675781 10.410156 12.375 10.410156 12.84375 Z M 10.703125 5.835938 C 8.773438 5.835938 7.492188 5.136719 7.492188 4.671875 C 7.492188 4.203125 8.773438 3.503906 10.703125 3.503906 C 12.632812 3.503906 13.914062 4.203125 13.914062 4.671875 C 13.914062 5.136719 12.632812 5.835938 10.703125 5.835938 Z M 29.5 5.253906 C 29.5 6.210938 28.464844 6.996094 27.164062 7.003906 C 26.949219 7.003906 26.730469 6.980469 26.519531 6.929688 C 27.382812 6.011719 27.949219 4.933594 28.226562 3.703125 C 28.578125 3.804688 28.867188 4 29.101562 4.28125 C 29.332031 4.566406 29.46875 4.890625 29.5 5.253906 Z M 17.339844 1.621094 C 17.851562 2.101562 18.457031 2.339844 19.160156 2.335938 C 19.863281 2.339844 20.46875 2.101562 20.980469 1.621094 C 21.125 1.476562 21.292969 1.363281 21.480469 1.285156 C 21.671875 1.207031 21.867188 1.167969 22.074219 1.167969 C 22.277344 1.167969 22.476562 1.207031 22.664062 1.285156 C 22.851562 1.363281 23.019531 1.476562 23.164062 1.621094 C 23.675781 2.101562 24.285156 2.339844 24.984375 2.335938 C 25.6875 2.339844 26.296875 2.101562 26.808594 1.621094 C 26.96875 1.480469 27.148438 1.359375 27.34375 1.261719 C 27.34375 2.347656 27.140625 5.027344 25.261719 6.496094 C 24.828125 6.824219 24.339844 6.988281 23.796875 7 C 24.304688 6.128906 24.699219 5.207031 24.988281 4.242188 C 25.03125 4.085938 25.011719 3.9375 24.933594 3.796875 C 24.855469 3.65625 24.738281 3.566406 24.582031 3.523438 C 24.425781 3.480469 24.277344 3.496094 24.136719 3.578125 C 23.996094 3.65625 23.90625 3.773438 23.863281 3.929688 C 23.535156 5.035156 23.046875 6.058594 22.390625 7.003906 L 21.789062 7.003906 C 21.132812 6.058594 20.644531 5.03125 20.316406 3.929688 C 20.273438 3.773438 20.179688 3.65625 20.039062 3.578125 C 19.902344 3.5 19.753906 3.480469 19.597656 3.523438 C 19.441406 3.566406 19.324219 3.660156 19.246094 3.800781 C 19.167969 3.941406 19.148438 4.085938 19.191406 4.242188 C 19.480469 5.210938 19.875 6.128906 20.382812 7 C 19.828125 7 19.332031 6.832031 18.886719 6.496094 C 17.007812 5.027344 16.804688 2.347656 16.804688 1.269531 C 17 1.359375 17.179688 1.480469 17.339844 1.621094 Z M 17.339844 1.621094 " fill-opacity="1" fill-rule="nonzero"/></g><path fill="#fda31b" d="M 32.089844 27.234375 C 32.800781 26.257812 33.15625 25.167969 33.160156 23.960938 C 33.167969 23.800781 33.117188 23.660156 33.011719 23.542969 C 32.902344 23.421875 32.765625 23.359375 32.605469 23.351562 C 32.445312 23.34375 32.304688 23.398438 32.1875 23.503906 C 32.070312 23.613281 32.003906 23.746094 31.996094 23.90625 C 32 24.863281 31.726562 25.730469 31.171875 26.511719 C 30.035156 27.949219 27.875 28.023438 27.453125 28.023438 C 27.289062 28.023438 27.152344 28.078125 27.039062 28.191406 C 26.925781 28.304688 26.867188 28.445312 26.867188 28.605469 C 26.867188 28.765625 26.925781 28.902344 27.039062 29.019531 C 27.152344 29.132812 27.289062 29.1875 27.453125 29.1875 C 27.96875 29.1875 30.617188 29.09375 32.089844 27.234375 Z M 32.089844 27.234375 " fill-opacity="1" fill-rule="nonzero"/></svg>