<svg xmlns="http://www.w3.org/2000/svg" xmlns:xlink="http://www.w3.org/1999/xlink" width="48" zoomAndPan="magnify" viewBox="0 0 36 36.000001" height="48" preserveAspectRatio="xMidYMid meet" version="1.0"><path fill="#fda31b" d="M 18.546875 1.097656 C 18.203125 1.097656 17.886719 1.199219 17.605469 1.398438 C 17.324219 1.601562 17.125 1.863281 17.011719 2.1875 L 3.222656 2.1875 C 3.003906 2.191406 2.796875 2.230469 2.597656 2.316406 C 2.394531 2.398438 2.21875 2.519531 2.0625 2.671875 C 1.910156 2.824219 1.792969 3.003906 1.707031 3.203125 C 1.625 3.40625 1.582031 3.613281 1.582031 3.832031 L 1.582031 9.304688 C 1.570312 10.042969 2.683594 10.042969 2.675781 9.304688 L 2.675781 3.832031 C 2.675781 3.519531 2.910156 3.28125 3.222656 3.28125 L 16.910156 3.28125 L 16.910156 4.378906 L 4.316406 4.378906 C 4.167969 4.378906 4.039062 4.433594 3.929688 4.539062 C 3.824219 4.644531 3.769531 4.773438 3.769531 4.925781 L 3.769531 20.25 C 3.769531 20.550781 4.015625 20.796875 4.316406 20.796875 L 29.492188 20.796875 C 29.644531 20.796875 29.773438 20.742188 29.878906 20.636719 C 29.988281 20.53125 30.039062 20.402344 30.039062 20.25 L 30.039062 13.136719 L 31.136719 13.136719 L 31.136719 21.34375 C 31.140625 21.496094 31.089844 21.628906 30.980469 21.734375 C 30.871094 21.84375 30.742188 21.894531 30.589844 21.890625 L 3.222656 21.890625 C 3.070312 21.894531 2.9375 21.84375 2.832031 21.734375 C 2.722656 21.625 2.671875 21.496094 2.675781 21.34375 L 2.675781 14.226562 C 2.683594 13.488281 1.570312 13.488281 1.582031 14.226562 L 1.582031 21.34375 C 1.582031 22.246094 2.324219 22.984375 3.222656 22.984375 L 30.589844 22.984375 C 30.808594 22.984375 31.015625 22.941406 31.21875 22.859375 C 31.417969 22.773438 31.59375 22.65625 31.746094 22.5 C 31.902344 22.347656 32.019531 22.171875 32.105469 21.96875 C 32.1875 21.769531 32.230469 21.5625 32.230469 21.34375 L 32.230469 13.136719 L 32.777344 13.136719 C 32.996094 13.132812 33.203125 13.089844 33.40625 13.007812 C 33.605469 12.921875 33.78125 12.804688 33.9375 12.652344 C 34.089844 12.496094 34.210938 12.320312 34.292969 12.117188 C 34.378906 11.917969 34.421875 11.707031 34.421875 11.492188 L 34.421875 2.738281 C 34.421875 2.519531 34.378906 2.308594 34.292969 2.109375 C 34.210938 1.910156 34.089844 1.730469 33.9375 1.578125 C 33.78125 1.425781 33.605469 1.304688 33.402344 1.222656 C 33.203125 1.140625 32.996094 1.097656 32.777344 1.097656 Z M 18.546875 2.1875 L 32.777344 2.1875 C 32.929688 2.183594 33.0625 2.234375 33.167969 2.34375 C 33.277344 2.453125 33.332031 2.582031 33.328125 2.738281 L 33.328125 11.492188 C 33.328125 11.644531 33.277344 11.773438 33.167969 11.882812 C 33.0625 11.992188 32.929688 12.042969 32.777344 12.042969 L 23.472656 12.042969 C 23.339844 12.039062 23.21875 12.082031 23.117188 12.167969 L 20.1875 14.683594 L 20.1875 12.585938 C 20.1875 12.4375 20.132812 12.308594 20.027344 12.203125 C 19.921875 12.09375 19.792969 12.042969 19.640625 12.042969 L 18.546875 12.042969 C 18.394531 12.042969 18.265625 11.992188 18.15625 11.882812 C 18.050781 11.773438 18 11.644531 18.003906 11.492188 L 18.003906 2.738281 C 18.003906 2.421875 18.234375 2.1875 18.546875 2.1875 Z M 22.925781 4.378906 L 22.925781 9.851562 C 22.925781 10.28125 23.398438 10.542969 23.765625 10.316406 L 28.144531 7.582031 C 28.222656 7.53125 28.285156 7.464844 28.332031 7.382812 C 28.378906 7.300781 28.402344 7.210938 28.402344 7.117188 C 28.402344 7.019531 28.378906 6.933594 28.332031 6.851562 C 28.285156 6.765625 28.222656 6.699219 28.144531 6.652344 L 23.765625 3.910156 C 23.433594 3.703125 22.925781 3.890625 22.925781 4.378906 Z M 24.023438 5.367188 L 26.816406 7.117188 L 24.023438 8.863281 Z M 4.867188 5.472656 L 16.910156 5.472656 L 16.910156 11.492188 C 16.910156 12.390625 17.648438 13.136719 18.546875 13.136719 L 19.09375 13.136719 L 19.09375 15.871094 C 19.09375 16.105469 19.199219 16.269531 19.410156 16.367188 C 19.625 16.464844 19.820312 16.441406 19.996094 16.289062 L 23.675781 13.136719 L 28.945312 13.136719 L 28.945312 19.703125 L 18 19.703125 C 18 17.894531 16.527344 16.421875 14.714844 16.421875 L 14.171875 16.421875 L 14.171875 15.027344 C 14.839844 14.425781 15.265625 13.554688 15.265625 12.585938 L 15.265625 12.042969 C 15.570312 12.042969 15.8125 11.796875 15.808594 11.492188 L 15.808594 9.851562 C 15.808594 9.417969 15.726562 9 15.558594 8.597656 C 15.390625 8.195312 15.15625 7.839844 14.847656 7.53125 C 14.539062 7.222656 14.183594 6.984375 13.78125 6.820312 C 13.378906 6.652344 12.960938 6.566406 12.527344 6.566406 L 11.429688 6.566406 C 9.621094 6.566406 8.152344 8.042969 8.152344 9.851562 L 8.152344 11.492188 C 8.152344 11.796875 8.394531 12.042969 8.695312 12.042969 L 8.695312 12.585938 C 8.695312 13.554688 9.117188 14.425781 9.789062 15.027344 L 9.789062 16.421875 L 9.242188 16.421875 C 7.429688 16.421875 5.960938 17.890625 5.960938 19.703125 L 4.863281 19.703125 Z M 11.429688 7.660156 L 12.527344 7.660156 C 13.746094 7.660156 14.714844 8.628906 14.714844 9.851562 L 14.714844 10.722656 L 14.007812 10.015625 C 13.914062 9.921875 13.804688 9.867188 13.671875 9.855469 C 13.542969 9.84375 13.425781 9.871094 13.316406 9.945312 C 13.316406 9.945312 11.734375 10.945312 10.332031 10.945312 L 9.238281 10.945312 L 9.238281 9.851562 C 9.238281 8.628906 10.207031 7.660156 11.429688 7.660156 Z M 2.121094 10.9375 C 1.96875 10.941406 1.84375 10.996094 1.738281 11.105469 C 1.632812 11.210938 1.582031 11.34375 1.582031 11.492188 L 1.582031 12.042969 C 1.570312 12.78125 2.683594 12.78125 2.675781 12.042969 L 2.675781 11.492188 C 2.675781 11.339844 2.625 11.207031 2.515625 11.097656 C 2.40625 10.992188 2.273438 10.9375 2.121094 10.9375 Z M 13.535156 11.082031 L 14.171875 11.722656 L 14.171875 12.585938 C 14.171875 12.878906 14.117188 13.15625 14.007812 13.425781 C 13.898438 13.695312 13.738281 13.933594 13.535156 14.140625 C 13.328125 14.34375 13.089844 14.503906 12.820312 14.613281 C 12.550781 14.722656 12.273438 14.777344 11.980469 14.777344 C 10.757812 14.777344 9.789062 13.808594 9.789062 12.585938 L 9.789062 12.042969 L 10.335938 12.042969 C 11.738281 12.042969 13.167969 11.320312 13.535156 11.085938 Z M 10.886719 15.679688 C 11.230469 15.800781 11.597656 15.871094 11.980469 15.871094 C 12.367188 15.871094 12.730469 15.800781 13.074219 15.679688 L 13.074219 16.863281 C 13.074219 16.863281 12.890625 17.511719 11.980469 17.511719 C 11.070312 17.511719 10.886719 16.871094 10.886719 16.871094 Z M 9.242188 17.511719 L 9.984375 17.511719 C 9.984375 17.511719 10.453125 18.605469 11.980469 18.605469 C 13.507812 18.605469 13.976562 17.511719 13.976562 17.511719 L 14.714844 17.511719 C 15.9375 17.511719 16.90625 18.480469 16.90625 19.703125 L 7.054688 19.703125 C 7.054688 18.480469 8.019531 17.511719 9.242188 17.511719 Z M 6.507812 24.078125 C 5.003906 24.078125 3.765625 25.308594 3.765625 26.8125 L 3.765625 27.363281 C 3.765625 28 4 28.578125 4.367188 29.042969 C 3.980469 29.105469 3.613281 29.230469 3.273438 29.421875 C 2.929688 29.609375 2.628906 29.855469 2.375 30.152344 C 2.121094 30.449219 1.921875 30.78125 1.789062 31.152344 C 1.652344 31.519531 1.582031 31.898438 1.582031 32.289062 L 1.582031 33.386719 C 1.582031 33.6875 1.828125 33.933594 2.128906 33.933594 L 10.882812 33.933594 C 11.035156 33.933594 11.164062 33.882812 11.273438 33.773438 C 11.378906 33.667969 11.433594 33.535156 11.433594 33.382812 L 11.433594 32.289062 C 11.433594 31.894531 11.363281 31.515625 11.226562 31.148438 C 11.089844 30.78125 10.894531 30.449219 10.636719 30.152344 C 10.382812 29.855469 10.085938 29.613281 9.742188 29.421875 C 9.398438 29.230469 9.035156 29.105469 8.648438 29.046875 C 9.015625 28.582031 9.242188 28.003906 9.242188 27.363281 L 9.242188 26.816406 C 9.242188 25.308594 8.015625 24.082031 6.507812 24.082031 Z M 18.003906 24.078125 C 16.496094 24.078125 15.261719 25.308594 15.261719 26.8125 L 15.261719 27.363281 C 15.261719 28 15.492188 28.578125 15.863281 29.042969 C 15.472656 29.105469 15.109375 29.230469 14.765625 29.417969 C 14.421875 29.609375 14.125 29.855469 13.867188 30.152344 C 13.613281 30.449219 13.417969 30.78125 13.28125 31.148438 C 13.144531 31.515625 13.074219 31.894531 13.074219 32.289062 L 13.074219 33.382812 C 13.074219 33.6875 13.320312 33.933594 13.625 33.933594 L 22.378906 33.933594 C 22.53125 33.933594 22.660156 33.878906 22.765625 33.769531 C 22.875 33.664062 22.925781 33.535156 22.925781 33.382812 L 22.925781 32.285156 C 22.925781 31.894531 22.855469 31.515625 22.71875 31.148438 C 22.582031 30.78125 22.386719 30.449219 22.132812 30.152344 C 21.878906 29.855469 21.578125 29.609375 21.234375 29.421875 C 20.894531 29.230469 20.527344 29.105469 20.140625 29.042969 C 20.507812 28.578125 20.738281 28 20.738281 27.363281 L 20.738281 26.8125 C 20.738281 25.308594 19.507812 24.078125 18.003906 24.078125 Z M 29.492188 24.078125 C 27.984375 24.078125 26.757812 25.308594 26.757812 26.8125 L 26.757812 27.363281 C 26.757812 28 26.984375 28.578125 27.351562 29.042969 C 26.964844 29.105469 26.601562 29.230469 26.257812 29.421875 C 25.914062 29.609375 25.617188 29.855469 25.359375 30.152344 C 25.105469 30.449219 24.910156 30.78125 24.773438 31.148438 C 24.636719 31.515625 24.566406 31.894531 24.566406 32.289062 L 24.566406 33.382812 C 24.566406 33.6875 24.816406 33.933594 25.117188 33.933594 L 33.875 33.933594 C 34.023438 33.933594 34.15625 33.878906 34.261719 33.769531 C 34.367188 33.664062 34.421875 33.535156 34.421875 33.382812 L 34.421875 32.285156 C 34.421875 31.894531 34.351562 31.515625 34.214844 31.148438 C 34.078125 30.78125 33.882812 30.449219 33.625 30.152344 C 33.371094 29.851562 33.070312 29.609375 32.726562 29.417969 C 32.386719 29.230469 32.019531 29.105469 31.632812 29.042969 C 32.003906 28.578125 32.234375 28 32.234375 27.363281 L 32.234375 26.8125 C 32.234375 25.308594 31 24.078125 29.492188 24.078125 Z M 6.507812 25.175781 C 7.425781 25.175781 8.148438 25.894531 8.148438 26.8125 L 8.148438 27.363281 C 8.148438 28.28125 7.425781 29.003906 6.507812 29.003906 C 5.589844 29.003906 4.863281 28.28125 4.863281 27.363281 L 4.863281 26.8125 C 4.863281 25.894531 5.585938 25.171875 6.507812 25.171875 Z M 18.003906 25.175781 C 18.921875 25.175781 19.640625 25.894531 19.640625 26.8125 L 19.640625 27.363281 C 19.644531 27.582031 19.605469 27.789062 19.519531 27.992188 C 19.4375 28.195312 19.320312 28.371094 19.167969 28.527344 C 19.011719 28.679688 18.835938 28.800781 18.632812 28.882812 C 18.429688 28.964844 18.222656 29.003906 18.003906 29.003906 C 17.785156 29.007812 17.574219 28.964844 17.371094 28.882812 C 17.167969 28.800781 16.992188 28.683594 16.835938 28.527344 C 16.679688 28.375 16.5625 28.195312 16.480469 27.992188 C 16.394531 27.792969 16.355469 27.582031 16.355469 27.363281 L 16.355469 26.8125 C 16.355469 25.894531 17.082031 25.171875 18.003906 25.171875 Z M 29.492188 25.175781 C 30.414062 25.175781 31.136719 25.894531 31.136719 26.8125 L 31.136719 27.363281 C 31.136719 28.28125 30.414062 29.003906 29.492188 29.003906 C 29.273438 29.003906 29.0625 28.964844 28.863281 28.882812 C 28.660156 28.800781 28.480469 28.683594 28.328125 28.527344 C 28.171875 28.375 28.054688 28.195312 27.972656 27.992188 C 27.890625 27.792969 27.847656 27.582031 27.851562 27.363281 L 27.851562 26.8125 C 27.851562 25.894531 28.574219 25.171875 29.492188 25.171875 Z M 4.863281 30.097656 L 8.148438 30.097656 C 9.367188 30.097656 10.335938 31.066406 10.335938 32.289062 L 10.335938 32.839844 L 2.671875 32.839844 L 2.671875 32.289062 C 2.671875 31.066406 3.640625 30.097656 4.867188 30.097656 Z M 16.355469 30.097656 L 19.640625 30.097656 C 20.863281 30.097656 21.835938 31.066406 21.835938 32.289062 L 21.835938 32.839844 L 14.164062 32.839844 L 14.164062 32.289062 C 14.164062 31.066406 15.132812 30.097656 16.355469 30.097656 Z M 27.851562 30.097656 L 31.136719 30.097656 C 32.359375 30.097656 33.328125 31.066406 33.328125 32.289062 L 33.328125 32.839844 L 25.664062 32.839844 L 25.664062 32.289062 C 25.664062 31.066406 26.628906 30.097656 27.851562 30.097656 Z M 27.851562 30.097656 " fill-opacity="1" fill-rule="nonzero"/></svg>