<svg xmlns="http://www.w3.org/2000/svg" xmlns:xlink="http://www.w3.org/1999/xlink" width="45" zoomAndPan="magnify" viewBox="0 0 33.75 33.749998" height="45" preserveAspectRatio="xMidYMid meet" version="1.0"><defs><clipPath id="416585bf2c"><path d="M 1 10 L 32 10 L 32 33.5 L 1 33.5 Z M 1 10 " clip-rule="nonzero"/></clipPath></defs><g clip-path="url(#416585bf2c)"><path fill="#fda31b" d="M 30.820312 12.230469 L 28.824219 12.230469 L 28.824219 12.007812 C 28.824219 11.449219 28.371094 10.996094 27.8125 10.996094 L 23.875 10.996094 C 23.601562 10.996094 23.382812 11.214844 23.382812 11.484375 C 23.382812 11.757812 23.601562 11.976562 23.875 11.976562 L 27.8125 11.976562 C 27.828125 11.976562 27.84375 11.992188 27.84375 12.007812 L 27.84375 18 C 27.84375 18.269531 28.0625 18.488281 28.332031 18.488281 C 28.605469 18.488281 28.824219 18.269531 28.824219 18 L 28.824219 13.214844 L 30.820312 13.214844 C 30.886719 13.214844 30.941406 13.269531 30.941406 13.335938 L 30.941406 30.480469 C 30.941406 31.605469 30.027344 32.519531 28.902344 32.519531 L 4.597656 32.519531 C 3.476562 32.519531 2.558594 31.605469 2.558594 30.480469 L 2.558594 13.335938 C 2.558594 13.269531 2.613281 13.214844 2.679688 13.214844 L 4.742188 13.214844 L 4.742188 30.023438 C 4.742188 30.714844 5.304688 31.277344 6 31.277344 L 27.566406 31.277344 C 28.261719 31.277344 28.824219 30.714844 28.824219 30.023438 L 28.824219 20.09375 C 28.824219 19.824219 28.605469 19.601562 28.332031 19.601562 C 28.0625 19.601562 27.84375 19.824219 27.84375 20.09375 L 27.84375 27.167969 L 19.890625 27.167969 C 18.859375 27.167969 17.933594 27.601562 17.273438 28.296875 L 17.273438 21.941406 C 17.273438 21.667969 17.054688 21.449219 16.785156 21.449219 C 16.511719 21.449219 16.292969 21.667969 16.292969 21.941406 L 16.292969 28.296875 C 15.636719 27.601562 14.707031 27.167969 13.675781 27.167969 L 11.445312 27.167969 C 11.171875 27.167969 10.953125 27.386719 10.953125 27.660156 C 10.953125 27.929688 11.171875 28.148438 11.445312 28.148438 L 13.675781 28.148438 C 14.957031 28.148438 16.027344 29.078125 16.25 30.296875 L 6 30.296875 C 5.921875 30.296875 5.859375 30.269531 5.804688 30.214844 C 5.753906 30.160156 5.726562 30.097656 5.726562 30.023438 L 5.726562 28.148438 L 9.347656 28.148438 C 9.617188 28.148438 9.839844 27.929688 9.839844 27.660156 C 9.839844 27.386719 9.617188 27.167969 9.347656 27.167969 L 5.726562 27.167969 L 5.726562 12.007812 C 5.726562 11.992188 5.738281 11.976562 5.753906 11.976562 L 9.691406 11.976562 C 9.964844 11.976562 10.183594 11.757812 10.183594 11.484375 C 10.183594 11.214844 9.964844 10.996094 9.691406 10.996094 L 5.753906 10.996094 C 5.195312 10.996094 4.742188 11.449219 4.742188 12.007812 L 4.742188 12.230469 L 2.679688 12.230469 C 2.070312 12.230469 1.578125 12.726562 1.578125 13.335938 L 1.578125 30.480469 C 1.578125 32.144531 2.933594 33.5 4.597656 33.5 L 28.902344 33.5 C 30.570312 33.5 31.925781 32.144531 31.925781 30.480469 L 31.925781 13.335938 C 31.925781 12.726562 31.429688 12.230469 30.820312 12.230469 Z M 19.890625 28.148438 L 27.84375 28.148438 L 27.84375 30.023438 C 27.84375 30.097656 27.816406 30.160156 27.761719 30.214844 C 27.707031 30.269531 27.644531 30.296875 27.566406 30.296875 L 17.316406 30.296875 C 17.539062 29.078125 18.609375 28.148438 19.890625 28.148438 Z M 19.890625 28.148438 " fill-opacity="1" fill-rule="nonzero"/></g><path fill="#fda31b" d="M 10.230469 6.894531 C 10.5 6.921875 10.742188 6.722656 10.765625 6.453125 C 10.90625 4.960938 11.59375 3.582031 12.703125 2.566406 C 13.820312 1.546875 15.269531 0.984375 16.785156 0.984375 C 20.117188 0.984375 22.828125 3.695312 22.828125 7.027344 C 22.828125 8.28125 22.449219 9.484375 21.726562 10.503906 C 21.722656 10.511719 21.71875 10.515625 21.714844 10.523438 L 18.570312 15.417969 C 18.519531 15.5 18.492188 15.589844 18.492188 15.683594 L 18.492188 16.320312 C 18.492188 16.476562 18.414062 16.554688 18.257812 16.554688 L 18.226562 16.554688 L 18.539062 11.242188 L 19.097656 11.242188 C 19.898438 11.242188 20.550781 10.589844 20.550781 9.789062 L 20.550781 9.730469 C 20.550781 8.929688 19.898438 8.277344 19.097656 8.277344 C 18.332031 8.277344 17.695312 8.878906 17.648438 9.644531 L 17.613281 10.261719 L 15.890625 10.261719 L 15.851562 9.644531 C 15.808594 8.878906 15.171875 8.277344 14.402344 8.277344 C 13.601562 8.277344 12.949219 8.929688 12.949219 9.730469 L 12.949219 9.789062 C 12.949219 10.589844 13.601562 11.242188 14.402344 11.242188 L 14.960938 11.242188 L 15.277344 16.550781 C 15.164062 16.535156 15.074219 16.4375 15.074219 16.320312 L 15.074219 15.683594 C 15.074219 15.589844 15.046875 15.5 14.996094 15.417969 L 11.851562 10.523438 C 11.847656 10.515625 11.84375 10.511719 11.839844 10.503906 C 11.386719 9.859375 11.070312 9.15625 10.894531 8.386719 C 10.863281 8.253906 10.789062 8.152344 10.675781 8.078125 C 10.5625 8.007812 10.4375 7.988281 10.304688 8.019531 C 10.171875 8.046875 10.070312 8.121094 10 8.234375 C 9.925781 8.351562 9.90625 8.472656 9.9375 8.605469 C 10.140625 9.496094 10.503906 10.316406 11.03125 11.0625 L 14.09375 15.828125 L 14.09375 16.320312 C 14.09375 16.816406 14.390625 17.246094 14.816406 17.433594 L 14.816406 18.265625 C 14.816406 19.140625 15.527344 19.851562 16.402344 19.851562 L 17.164062 19.851562 C 18.039062 19.851562 18.75 19.140625 18.75 18.265625 L 18.75 17.433594 C 19.175781 17.246094 19.476562 16.816406 19.476562 16.320312 L 19.476562 15.828125 L 22.535156 11.0625 C 23.371094 9.875 23.8125 8.480469 23.8125 7.027344 C 23.8125 3.152344 20.660156 0 16.785156 0 C 15.023438 0 13.339844 0.652344 12.042969 1.84375 C 10.75 3.023438 9.953125 4.625 9.789062 6.359375 C 9.777344 6.496094 9.8125 6.613281 9.898438 6.71875 C 9.984375 6.824219 10.097656 6.882812 10.230469 6.894531 Z M 18.628906 9.703125 C 18.636719 9.578125 18.6875 9.472656 18.777344 9.390625 C 18.867188 9.304688 18.976562 9.261719 19.097656 9.261719 C 19.359375 9.261719 19.570312 9.472656 19.570312 9.730469 L 19.570312 9.789062 C 19.570312 10.050781 19.359375 10.261719 19.097656 10.261719 L 18.597656 10.261719 Z M 14.402344 10.261719 C 14.144531 10.261719 13.933594 10.050781 13.933594 9.789062 L 13.933594 9.730469 C 13.933594 9.472656 14.144531 9.261719 14.402344 9.261719 C 14.527344 9.261719 14.632812 9.304688 14.726562 9.390625 C 14.816406 9.472656 14.863281 9.578125 14.871094 9.703125 L 14.90625 10.261719 Z M 17.554688 11.242188 L 17.242188 16.554688 L 16.261719 16.554688 L 15.945312 11.242188 Z M 17.765625 18.265625 C 17.765625 18.597656 17.496094 18.867188 17.164062 18.867188 L 16.402344 18.867188 C 16.070312 18.867188 15.800781 18.597656 15.800781 18.265625 L 15.800781 17.539062 L 17.765625 17.539062 Z M 25.390625 3.730469 C 25.515625 3.730469 25.625 3.691406 25.714844 3.609375 L 26.789062 2.667969 C 26.890625 2.578125 26.945312 2.464844 26.953125 2.332031 C 26.960938 2.195312 26.921875 2.078125 26.832031 1.976562 C 26.742188 1.875 26.628906 1.820312 26.496094 1.8125 C 26.359375 1.800781 26.242188 1.839844 26.140625 1.929688 L 25.066406 2.871094 C 24.898438 3.019531 24.851562 3.203125 24.933594 3.414062 C 25.011719 3.625 25.164062 3.730469 25.390625 3.730469 Z M 25.066406 6.695312 L 26.140625 7.636719 C 26.234375 7.71875 26.339844 7.757812 26.464844 7.757812 C 26.691406 7.757812 26.84375 7.652344 26.925781 7.441406 C 27.003906 7.230469 26.957031 7.046875 26.789062 6.898438 L 25.714844 5.957031 C 25.613281 5.867188 25.496094 5.828125 25.359375 5.835938 C 25.226562 5.84375 25.113281 5.898438 25.023438 6.003906 C 24.933594 6.105469 24.894531 6.222656 24.902344 6.359375 C 24.910156 6.492188 24.964844 6.605469 25.066406 6.695312 Z M 6.777344 2.667969 L 7.851562 3.609375 C 7.945312 3.691406 8.050781 3.730469 8.175781 3.730469 C 8.402344 3.730469 8.554688 3.625 8.636719 3.414062 C 8.714844 3.203125 8.671875 3.019531 8.5 2.871094 L 7.425781 1.929688 C 7.324219 1.839844 7.207031 1.800781 7.070312 1.808594 C 6.9375 1.816406 6.824219 1.871094 6.734375 1.976562 C 6.644531 2.078125 6.605469 2.195312 6.613281 2.332031 C 6.621094 2.464844 6.675781 2.578125 6.777344 2.667969 Z M 7.101562 7.757812 C 7.226562 7.757812 7.335938 7.71875 7.425781 7.636719 L 8.5 6.695312 C 8.601562 6.605469 8.65625 6.492188 8.664062 6.359375 C 8.675781 6.222656 8.632812 6.105469 8.542969 6.003906 C 8.457031 5.898438 8.34375 5.84375 8.207031 5.835938 C 8.070312 5.828125 7.953125 5.867188 7.851562 5.957031 L 6.777344 6.898438 C 6.609375 7.046875 6.5625 7.230469 6.644531 7.441406 C 6.722656 7.652344 6.875 7.757812 7.101562 7.757812 Z M 12.4375 17.046875 C 12.4375 16.910156 12.386719 16.796875 12.292969 16.699219 C 12.195312 16.601562 12.078125 16.554688 11.945312 16.554688 L 7.101562 16.554688 C 6.832031 16.554688 6.613281 16.773438 6.613281 17.046875 C 6.613281 17.316406 6.832031 17.539062 7.101562 17.539062 L 11.945312 17.539062 C 12.078125 17.539062 12.195312 17.492188 12.292969 17.394531 C 12.386719 17.296875 12.4375 17.183594 12.4375 17.046875 Z M 13.441406 19.054688 L 7.992188 19.054688 C 7.71875 19.054688 7.5 19.273438 7.5 19.546875 C 7.5 19.816406 7.71875 20.039062 7.992188 20.039062 L 13.441406 20.039062 C 13.710938 20.039062 13.933594 19.816406 13.933594 19.546875 C 13.933594 19.273438 13.710938 19.054688 13.441406 19.054688 Z M 13.441406 21.449219 L 7.992188 21.449219 C 7.71875 21.449219 7.5 21.667969 7.5 21.941406 C 7.5 22.210938 7.71875 22.433594 7.992188 22.433594 L 13.441406 22.433594 C 13.710938 22.433594 13.933594 22.210938 13.933594 21.941406 C 13.933594 21.667969 13.710938 21.449219 13.441406 21.449219 Z M 13.441406 23.84375 L 7.992188 23.84375 C 7.71875 23.84375 7.5 24.0625 7.5 24.335938 C 7.5 24.605469 7.71875 24.828125 7.992188 24.828125 L 13.441406 24.828125 C 13.710938 24.828125 13.933594 24.605469 13.933594 24.335938 C 13.933594 24.0625 13.710938 23.84375 13.441406 23.84375 Z M 26.957031 17.046875 C 26.957031 16.910156 26.90625 16.796875 26.8125 16.699219 C 26.714844 16.601562 26.601562 16.554688 26.464844 16.554688 L 21.625 16.554688 C 21.351562 16.554688 21.132812 16.773438 21.132812 17.046875 C 21.132812 17.316406 21.351562 17.539062 21.625 17.539062 L 26.464844 17.539062 C 26.601562 17.539062 26.714844 17.492188 26.8125 17.394531 C 26.90625 17.296875 26.957031 17.183594 26.957031 17.046875 Z M 25.578125 19.054688 L 20.125 19.054688 C 19.855469 19.054688 19.632812 19.273438 19.632812 19.546875 C 19.632812 19.816406 19.855469 20.039062 20.125 20.039062 L 25.578125 20.039062 C 25.847656 20.039062 26.066406 19.816406 26.066406 19.546875 C 26.066406 19.273438 25.847656 19.054688 25.578125 19.054688 Z M 25.578125 21.449219 L 20.125 21.449219 C 19.855469 21.449219 19.632812 21.667969 19.632812 21.941406 C 19.632812 22.210938 19.855469 22.433594 20.125 22.433594 L 25.578125 22.433594 C 25.847656 22.433594 26.066406 22.210938 26.066406 21.941406 C 26.066406 21.667969 25.847656 21.449219 25.578125 21.449219 Z M 25.578125 23.84375 L 20.125 23.84375 C 19.855469 23.84375 19.632812 24.0625 19.632812 24.335938 C 19.632812 24.605469 19.855469 24.828125 20.125 24.828125 L 25.578125 24.828125 C 25.847656 24.828125 26.066406 24.605469 26.066406 24.335938 C 26.066406 24.0625 25.847656 23.84375 25.578125 23.84375 Z M 25.578125 23.84375 " fill-opacity="1" fill-rule="nonzero"/></svg>