<svg xmlns="http://www.w3.org/2000/svg" xmlns:xlink="http://www.w3.org/1999/xlink" width="48" zoomAndPan="magnify" viewBox="0 0 36 36.000001" height="48" preserveAspectRatio="xMidYMid meet" version="1.0"><defs><clipPath id="5aa6826dc7"><path d="M 4 21 L 35.511719 21 L 35.511719 35 L 4 35 Z M 4 21 " clip-rule="nonzero"/></clipPath><clipPath id="62e3905a1d"><path d="M 0.488281 19 L 6 19 L 6 35 L 0.488281 35 Z M 0.488281 19 " clip-rule="nonzero"/></clipPath><clipPath id="cf4213b371"><path d="M 7 0.4375 L 31 0.4375 L 31 9 L 7 9 Z M 7 0.4375 " clip-rule="nonzero"/></clipPath></defs><path stroke-linecap="round" transform="matrix(0.068412, 0, 0, -0.068412, 30.120824, 6.019756)" fill="none" stroke-linejoin="round" d="M 0.00394073 0.00328282 L 0.00394073 -34.998364 " stroke="#fda31b" stroke-width="15" stroke-opacity="1" stroke-miterlimit="10"/><path stroke-linecap="round" transform="matrix(0.068412, 0, 0, -0.068412, 20.787324, 15.901302)" fill="none" stroke-linejoin="round" d="M 0.0254062 -0.0152211 C 0.0254062 -0.0152211 -12.650557 11.861357 -32.349689 6.094365 C -50.392952 0.784164 -55.075065 -23.825476 -42.912992 -33.532295 C -35.889823 -39.127991 -25.383619 -43.695905 -11.108886 -48.891908 C 20.69522 -60.425893 8.533147 -105.362754 -23.956146 -105.305655 C -36.632109 -105.305655 -42.5133 -104.449171 -53.590493 -97.083409 " stroke="#fda31b" stroke-width="15" stroke-opacity="1" stroke-miterlimit="10"/><path stroke-linecap="round" transform="matrix(0.068412, 0, 0, -0.068412, 22.662497, 29.42238)" fill="none" stroke-linejoin="round" d="M 0.0228906 0.00738014 L -142.667345 0.00738014 " stroke="#fda31b" stroke-width="15" stroke-opacity="1" stroke-miterlimit="10"/><g clip-path="url(#5aa6826dc7)"><path stroke-linecap="round" transform="matrix(0.068412, 0, 0, -0.068412, 5.44519, 31.817483)" fill="none" stroke-linejoin="round" d="M 0.00179074 0.0157343 L 87.934149 -32.759054 C 97.583869 -36.299188 107.461984 -38.069255 117.739792 -38.126354 L 233.193837 -38.126354 C 249.695428 -38.126354 264.940844 -33.672637 278.872984 -24.879401 L 423.504583 56.943371 C 433.040105 65.451112 434.810172 79.668747 427.615706 90.23205 C 419.736053 101.766034 406.774595 103.764497 392.499862 97.026823 L 251.693891 35.017381 L 251.865188 57.856954 C 249.980923 76.585405 235.534893 91.659523 216.863541 94.286074 L 131.158042 104.16419 C 111.344712 106.962037 101.466596 113.585514 84.222718 123.692025 C 60.241166 137.681264 34.375349 144.704433 6.625267 144.704433 L 0.00179074 144.704433 " stroke="#fda31b" stroke-width="15" stroke-opacity="1" stroke-miterlimit="10"/></g><g clip-path="url(#62e3905a1d)"><path stroke-linecap="round" transform="matrix(0.068412, 0, 0, -0.068412, 5.44519, 32.730578)" fill="none" stroke-linejoin="round" d="M 0.00179074 0.00160278 C 0.00179074 -8.106446 -6.564587 -14.729922 -14.729734 -14.729922 L -50.245271 -14.729922 C -58.410419 -14.729922 -64.976796 -8.106446 -64.976796 0.00160278 L -64.976796 170.44192 C -64.976796 178.607068 -58.410419 185.173445 -50.245271 185.173445 L -14.729734 185.173445 C -6.564587 185.173445 0.00179074 178.607068 0.00179074 170.44192 Z M 0.00179074 0.00160278 " stroke="#fda31b" stroke-width="15" stroke-opacity="1" stroke-miterlimit="10"/></g><path stroke-linecap="round" transform="matrix(0.068412, 0, 0, -0.068412, 27.022049, 22.46632)" fill="none" stroke-linejoin="round" d="M 0.0202966 0.021585 C 5.73019 14.067923 8.984829 29.427536 9.099027 45.529435 C 9.555819 104.969425 -32.126403 154.873894 -88.083358 166.807571 " stroke="#fda31b" stroke-width="15" stroke-opacity="1" stroke-miterlimit="10"/><path stroke-linecap="round" transform="matrix(0.068412, 0, 0, -0.068412, 22.469095, 27.052248)" fill="none" stroke-linejoin="round" d="M -0.00504324 0.0214383 C 19.180199 8.015289 35.967285 20.748351 48.757446 36.793152 " stroke="#fda31b" stroke-width="15" stroke-opacity="1" stroke-miterlimit="10"/><path stroke-linecap="round" transform="matrix(0.068412, 0, 0, -0.068412, 11.527082, 15.885363)" fill="none" stroke-linejoin="round" d="M 0.00382523 -0.0198201 C -6.562552 -14.922642 -10.273983 -31.367135 -10.44528 -48.668112 C -10.616576 -74.248434 -3.022418 -98.001591 10.110337 -117.757822 " stroke="#fda31b" stroke-width="15" stroke-opacity="1" stroke-miterlimit="10"/><path stroke-linecap="round" transform="matrix(0.068412, 0, 0, -0.068412, 17.462093, 11.053428)" fill="none" stroke-linejoin="round" d="M -0.0168863 -0.0184114 C -27.195979 -5.785404 -51.063333 -20.631127 -68.36431 -41.186743 " stroke="#fda31b" stroke-width="15" stroke-opacity="1" stroke-miterlimit="10"/><path stroke-linecap="round" transform="matrix(0.068412, 0, 0, -0.068412, 12.345837, 10.874051)" fill="none" stroke-linejoin="round" d="M 0.0265969 -0.0138748 C -35.203445 -28.848836 -57.814623 -72.529521 -58.214316 -121.634604 C -58.385612 -137.222613 -56.272952 -152.468028 -51.933433 -167.37085 " stroke="#fda31b" stroke-width="15" stroke-opacity="1" stroke-miterlimit="10"/><path stroke-linecap="round" transform="matrix(0.068412, 0, 0, -0.068412, 25.447272, 28.196163)" fill="none" stroke-linejoin="round" d="M 0.0284506 0.0124367 C 40.73999 28.447706 67.51939 75.554326 67.919083 128.998928 C 68.375874 179.017594 45.5934 223.783158 9.735269 253.189109 " stroke="#fda31b" stroke-width="15" stroke-opacity="1" stroke-miterlimit="10"/><path stroke-linecap="round" transform="matrix(0.068412, 0, 0, -0.068412, 25.92472, 11.053428)" fill="none" stroke-linejoin="round" d="M 0.0155168 -0.0184114 L -195.719628 -0.0184114 C -197.603893 -0.0184114 -198.517476 0.95227 -198.517476 2.779436 L -198.517476 45.43234 C -198.517476 49.143771 -197.432596 52.512608 -195.319936 55.538851 C -193.207275 58.507996 -190.409428 60.677755 -186.926393 61.876833 L -171.680977 67.301232 C -148.042019 75.751874 -123.203982 80.376887 -98.080452 80.376887 C -96.652978 80.376887 -95.168406 80.376887 -93.740933 80.376887 C -69.987776 79.920096 -46.520114 75.352181 -24.194431 67.35833 L -8.834818 61.876833 C -5.351783 60.677755 -2.553935 58.507996 -0.441275 55.538851 C 1.728485 52.512608 2.756266 49.143771 2.756266 45.43234 L 2.756266 2.779436 C 2.756266 0.95227 1.842683 -0.0184114 0.0155168 -0.0184114 Z M 0.0155168 -0.0184114 " stroke="#fda31b" stroke-width="15" stroke-opacity="1" stroke-miterlimit="10"/><g clip-path="url(#cf4213b371)"><path stroke-linecap="round" transform="matrix(0.068412, 0, 0, -0.068412, 26.113265, 7.903602)" fill="none" stroke-linejoin="round" d="M 0.000243477 0.0183926 L 54.758121 21.658889 C 59.839926 23.657351 59.839926 30.908916 54.758121 32.964477 L -98.38122 93.489347 C -99.865792 94.060337 -101.350364 94.060337 -102.834936 93.489347 L -255.974277 32.964477 C -261.113181 30.908916 -261.113181 23.657351 -255.974277 21.658889 L -201.216399 0.0183926 " stroke="#fda31b" stroke-width="15" stroke-opacity="1" stroke-miterlimit="10"/></g><path stroke-linecap="round" transform="matrix(0.068412, 0, 0, -0.068412, 30.805983, 10.921391)" fill="none" stroke-linejoin="round" d="M -0.0189322 -0.00708173 L -20.060658 -0.00708173 C -24.057583 -0.00708173 -27.140926 3.704349 -26.341541 7.644175 L -21.830725 31.397332 C -21.54523 32.881904 -20.802944 34.138081 -19.603866 35.165862 C -18.404789 36.136543 -17.034414 36.650434 -15.492743 36.650434 L -4.529748 36.650434 C -2.988077 36.650434 -1.617702 36.136543 -0.418625 35.165862 C 0.780453 34.138081 1.522739 32.881904 1.808234 31.397332 L 6.319049 7.644175 C 7.061336 3.704349 4.035092 -0.00708173 -0.0189322 -0.00708173 Z M -0.0189322 -0.00708173 " stroke="#fda31b" stroke-width="15" stroke-opacity="1" stroke-miterlimit="10"/></svg>