<svg xmlns="http://www.w3.org/2000/svg" xmlns:xlink="http://www.w3.org/1999/xlink" width="48" zoomAndPan="magnify" viewBox="0 0 36 36.000001" height="48" preserveAspectRatio="xMidYMid meet" version="1.0"><defs><clipPath id="a350eaf6b0"><path d="M 2 0 L 34 0 L 34 35.027344 L 2 35.027344 Z M 2 0 " clip-rule="nonzero"/></clipPath></defs><g clip-path="url(#a350eaf6b0)"><path fill="#fda31b" d="M 30.585938 10.945312 L 24.070312 10.945312 L 24.070312 10.875 C 24.070312 10.6875 24.070312 10.503906 24.03125 10.328125 L 24.65625 10.222656 C 24.820312 10.195312 24.945312 10.109375 25.03125 9.964844 C 25.117188 9.820312 25.132812 9.671875 25.082031 9.511719 L 24.21875 6.894531 L 28.59375 5.445312 C 28.835938 5.367188 28.960938 5.199219 28.96875 4.945312 C 28.976562 4.695312 28.867188 4.519531 28.632812 4.421875 L 18.234375 0.0429688 C 18.09375 -0.015625 17.949219 -0.015625 17.808594 0.0429688 L 7.410156 4.421875 C 7.175781 4.519531 7.066406 4.695312 7.074219 4.945312 C 7.085938 5.199219 7.207031 5.367188 7.449219 5.445312 L 8.171875 5.6875 L 8.171875 7.023438 C 7.839844 7.136719 7.578125 7.339844 7.375 7.625 C 7.175781 7.910156 7.074219 8.226562 7.074219 8.574219 L 7.074219 9.851562 C 7.074219 10.003906 7.128906 10.132812 7.234375 10.238281 C 7.34375 10.34375 7.472656 10.398438 7.625 10.398438 L 9.8125 10.398438 C 9.964844 10.398438 10.09375 10.34375 10.199219 10.238281 C 10.304688 10.132812 10.359375 10.003906 10.359375 9.851562 L 10.359375 8.574219 C 10.359375 8.226562 10.261719 7.910156 10.058594 7.625 C 9.859375 7.339844 9.59375 7.136719 9.265625 7.023438 L 9.265625 6.046875 L 11.804688 6.894531 L 10.941406 9.496094 C 10.886719 9.65625 10.902344 9.804688 10.988281 9.949219 C 11.078125 10.09375 11.203125 10.179688 11.367188 10.207031 L 11.875 10.289062 C 11.875 10.480469 11.84375 10.679688 11.84375 10.871094 L 11.84375 10.941406 L 5.414062 10.941406 C 5.050781 10.941406 4.699219 11.011719 4.363281 11.148438 C 4.03125 11.289062 3.734375 11.484375 3.476562 11.742188 C 3.21875 12 3.023438 12.292969 2.882812 12.628906 C 2.746094 12.964844 2.675781 13.3125 2.675781 13.675781 L 2.675781 27.914062 C 2.675781 28.273438 2.746094 28.625 2.882812 28.960938 C 3.023438 29.292969 3.21875 29.589844 3.476562 29.847656 C 3.734375 30.105469 4.03125 30.300781 4.363281 30.441406 C 4.699219 30.578125 5.050781 30.648438 5.414062 30.648438 L 13.621094 30.648438 L 13.621094 31.46875 C 13.621094 31.695312 13.542969 31.890625 13.382812 32.050781 C 13.222656 32.210938 13.027344 32.289062 12.800781 32.289062 C 12.621094 32.289062 12.445312 32.324219 12.277344 32.394531 C 12.109375 32.464844 11.960938 32.5625 11.832031 32.691406 C 11.703125 32.820312 11.605469 32.96875 11.535156 33.136719 C 11.46875 33.304688 11.433594 33.476562 11.433594 33.660156 C 11.433594 33.839844 11.46875 34.015625 11.535156 34.183594 C 11.605469 34.351562 11.703125 34.496094 11.832031 34.625 C 11.960938 34.753906 12.109375 34.851562 12.277344 34.921875 C 12.445312 34.992188 12.621094 35.027344 12.800781 35.027344 L 23.199219 35.027344 C 23.378906 35.027344 23.554688 34.992188 23.722656 34.921875 C 23.890625 34.851562 24.039062 34.753906 24.167969 34.625 C 24.296875 34.496094 24.394531 34.351562 24.464844 34.183594 C 24.53125 34.015625 24.566406 33.839844 24.566406 33.660156 C 24.566406 33.476562 24.53125 33.304688 24.464844 33.136719 C 24.394531 32.96875 24.296875 32.820312 24.167969 32.691406 C 24.039062 32.5625 23.890625 32.464844 23.722656 32.394531 C 23.554688 32.324219 23.378906 32.289062 23.199219 32.289062 C 22.972656 32.289062 22.777344 32.210938 22.617188 32.050781 C 22.457031 31.890625 22.378906 31.695312 22.378906 31.46875 L 22.378906 30.648438 L 30.585938 30.648438 C 30.949219 30.648438 31.300781 30.578125 31.636719 30.441406 C 31.96875 30.300781 32.265625 30.105469 32.523438 29.847656 C 32.78125 29.589844 32.976562 29.292969 33.117188 28.960938 C 33.253906 28.625 33.324219 28.273438 33.324219 27.914062 L 33.324219 13.683594 C 33.324219 13.320312 33.253906 12.96875 33.117188 12.636719 C 32.976562 12.300781 32.78125 12.003906 32.523438 11.746094 C 32.265625 11.492188 31.96875 11.292969 31.636719 11.152344 C 31.300781 11.015625 30.949219 10.945312 30.585938 10.945312 Z M 9.242188 9.304688 L 8.148438 9.304688 L 8.148438 8.582031 C 8.132812 8.425781 8.183594 8.289062 8.292969 8.179688 C 8.40625 8.070312 8.539062 8.019531 8.695312 8.035156 C 8.851562 8.019531 8.988281 8.070312 9.097656 8.179688 C 9.210938 8.289062 9.257812 8.425781 9.242188 8.582031 Z M 30.585938 12.039062 C 30.804688 12.039062 31.015625 12.082031 31.214844 12.164062 C 31.417969 12.25 31.59375 12.367188 31.75 12.519531 C 31.902344 12.675781 32.019531 12.851562 32.105469 13.054688 C 32.1875 13.253906 32.230469 13.464844 32.230469 13.683594 L 32.230469 26.269531 L 28.671875 26.269531 L 28.671875 25.324219 C 28.671875 21.242188 24.945312 20.058594 22.722656 19.347656 C 22.253906 19.210938 21.792969 19.046875 21.34375 18.855469 C 21.078125 18.742188 20.855469 18.570312 20.683594 18.339844 C 22.433594 16.992188 23.679688 14.507812 23.992188 12.039062 Z M 17.003906 26.269531 L 15.117188 24.402344 L 15.078125 24.371094 L 11.761719 21.085938 C 12.355469 20.839844 12.96875 20.636719 13.527344 20.457031 L 13.902344 20.335938 C 14.523438 21.34375 15.734375 22.4375 18 22.4375 C 20.265625 22.4375 21.484375 21.34375 22.125 20.304688 L 22.390625 20.386719 C 24.578125 21.082031 27.578125 22.027344 27.578125 25.3125 L 27.578125 26.269531 Z M 12.953125 23.808594 C 12.554688 23.90625 12.207031 24.105469 11.917969 24.402344 C 11.632812 24.695312 11.441406 25.046875 11.351562 25.449219 L 8.472656 22.4375 C 8.359375 22.339844 8.273438 22.21875 8.210938 22.082031 C 8.148438 21.945312 8.117188 21.804688 8.113281 21.65625 C 8.109375 21.503906 8.136719 21.359375 8.191406 21.222656 C 8.25 21.082031 8.328125 20.960938 8.433594 20.855469 C 8.542969 20.75 8.664062 20.667969 8.804688 20.613281 C 8.941406 20.558594 9.085938 20.53125 9.238281 20.535156 C 9.386719 20.539062 9.53125 20.574219 9.664062 20.636719 C 9.800781 20.699219 9.921875 20.785156 10.019531 20.894531 Z M 8.574219 24.128906 L 10.644531 26.269531 L 8.421875 26.269531 L 8.421875 25.324219 C 8.421875 24.917969 8.472656 24.519531 8.574219 24.128906 Z M 12.441406 26.269531 C 12.3125 25.851562 12.402344 25.484375 12.714844 25.175781 C 12.816406 25.074219 12.9375 24.992188 13.070312 24.9375 C 13.207031 24.878906 13.347656 24.851562 13.492188 24.847656 C 13.640625 24.84375 13.78125 24.871094 13.917969 24.921875 C 14.054688 24.972656 14.175781 25.050781 14.285156 25.148438 L 15.449219 26.269531 Z M 16.203125 18.953125 C 16.765625 19.226562 17.359375 19.359375 17.984375 19.355469 C 18.609375 19.351562 19.199219 19.207031 19.757812 18.925781 C 20.046875 19.339844 20.421875 19.648438 20.882812 19.855469 L 21.058594 19.933594 C 20.703125 20.414062 20.253906 20.78125 19.710938 21.03125 C 19.167969 21.28125 18.597656 21.386719 18 21.34375 C 17.402344 21.386719 16.832031 21.28125 16.289062 21.03125 C 15.746094 20.777344 15.296875 20.410156 14.941406 19.925781 L 15.148438 19.835938 C 15.558594 19.609375 15.910156 19.316406 16.203125 18.953125 Z M 12.15625 9.234375 L 12.996094 6.699219 C 13.371094 6.398438 14.941406 5.292969 18 5.292969 C 21.058594 5.292969 22.628906 6.386719 23.003906 6.699219 L 23.84375 9.234375 L 18 10.207031 Z M 18 1.136719 L 26.84375 4.867188 L 23.84375 5.867188 C 23.816406 5.882812 23.789062 5.898438 23.761719 5.917969 C 23.351562 5.554688 21.574219 4.199219 18 4.199219 C 14.425781 4.199219 12.648438 5.554688 12.238281 5.917969 C 12.210938 5.898438 12.183594 5.882812 12.15625 5.871094 L 9.15625 4.867188 Z M 17.914062 11.300781 L 18.09375 11.300781 L 22.957031 10.492188 L 22.957031 11.308594 C 22.9375 11.367188 22.925781 11.429688 22.925781 11.492188 C 22.921875 11.523438 22.921875 11.554688 22.925781 11.585938 C 22.640625 14.765625 20.515625 18.257812 17.921875 18.257812 C 15.132812 18.257812 12.886719 14.214844 12.886719 10.871094 L 12.886719 10.46875 Z M 5.414062 12.039062 L 11.898438 12.039062 C 12.210938 14.519531 13.480469 17.042969 15.257812 18.378906 C 15.074219 18.574219 14.867188 18.734375 14.632812 18.867188 C 14.160156 19.082031 13.671875 19.261719 13.171875 19.414062 C 12.394531 19.644531 11.632812 19.925781 10.886719 20.25 L 10.765625 20.128906 C 10.449219 19.824219 10.078125 19.632812 9.652344 19.550781 C 9.222656 19.472656 8.804688 19.515625 8.402344 19.683594 C 8 19.851562 7.675781 20.113281 7.429688 20.476562 C 7.1875 20.835938 7.058594 21.238281 7.054688 21.671875 C 7.054688 22.273438 7.265625 22.789062 7.6875 23.214844 L 7.714844 23.25 C 7.449219 23.914062 7.320312 24.605469 7.328125 25.324219 L 7.328125 26.269531 L 3.769531 26.269531 L 3.769531 13.683594 C 3.769531 13.464844 3.8125 13.253906 3.894531 13.054688 C 3.980469 12.851562 4.097656 12.675781 4.25 12.519531 C 4.40625 12.367188 4.582031 12.25 4.785156 12.164062 C 4.984375 12.082031 5.195312 12.039062 5.414062 12.039062 Z M 23.199219 33.386719 C 23.273438 33.386719 23.339844 33.410156 23.394531 33.464844 C 23.445312 33.519531 23.472656 33.582031 23.472656 33.660156 C 23.472656 33.734375 23.445312 33.800781 23.394531 33.851562 C 23.339844 33.90625 23.273438 33.933594 23.199219 33.933594 L 12.800781 33.933594 C 12.726562 33.933594 12.660156 33.90625 12.605469 33.851562 C 12.554688 33.800781 12.527344 33.734375 12.527344 33.660156 C 12.527344 33.582031 12.554688 33.519531 12.605469 33.464844 C 12.660156 33.410156 12.726562 33.386719 12.800781 33.386719 C 13.054688 33.386719 13.300781 33.335938 13.535156 33.238281 C 13.769531 33.140625 13.976562 33.003906 14.15625 32.824219 C 14.335938 32.644531 14.472656 32.4375 14.570312 32.203125 C 14.667969 31.96875 14.714844 31.722656 14.714844 31.46875 L 14.714844 30.648438 L 21.285156 30.648438 L 21.285156 31.46875 C 21.285156 31.722656 21.332031 31.96875 21.429688 32.203125 C 21.527344 32.4375 21.664062 32.644531 21.84375 32.824219 C 22.023438 33.003906 22.230469 33.140625 22.464844 33.238281 C 22.699219 33.335938 22.945312 33.386719 23.199219 33.386719 Z M 30.585938 29.554688 L 5.414062 29.554688 C 5.195312 29.554688 4.984375 29.511719 4.785156 29.429688 C 4.582031 29.347656 4.40625 29.226562 4.25 29.074219 C 4.097656 28.917969 3.980469 28.742188 3.894531 28.539062 C 3.8125 28.339844 3.769531 28.128906 3.769531 27.914062 L 3.769531 27.363281 L 32.230469 27.363281 L 32.230469 27.914062 C 32.230469 28.128906 32.1875 28.339844 32.105469 28.539062 C 32.019531 28.742188 31.902344 28.917969 31.75 29.074219 C 31.59375 29.226562 31.417969 29.347656 31.214844 29.429688 C 31.015625 29.511719 30.804688 29.554688 30.585938 29.554688 Z M 30.585938 29.554688 " fill-opacity="1" fill-rule="nonzero"/></g><path fill="#fda31b" d="M 26.210938 14.777344 L 27.851562 14.777344 C 28.003906 14.777344 28.132812 14.722656 28.238281 14.617188 C 28.34375 14.511719 28.398438 14.382812 28.398438 14.230469 C 28.398438 14.078125 28.34375 13.949219 28.238281 13.84375 C 28.132812 13.734375 28.003906 13.683594 27.851562 13.683594 L 26.210938 13.683594 C 26.058594 13.683594 25.929688 13.734375 25.824219 13.84375 C 25.714844 13.949219 25.664062 14.078125 25.664062 14.230469 C 25.664062 14.382812 25.714844 14.511719 25.824219 14.617188 C 25.929688 14.722656 26.058594 14.777344 26.210938 14.777344 Z M 26.210938 16.964844 L 29.492188 16.964844 C 29.644531 16.964844 29.773438 16.914062 29.878906 16.804688 C 29.988281 16.699219 30.039062 16.570312 30.039062 16.417969 C 30.039062 16.269531 29.988281 16.140625 29.878906 16.03125 C 29.773438 15.925781 29.644531 15.871094 29.492188 15.871094 L 26.210938 15.871094 C 26.058594 15.871094 25.929688 15.925781 25.824219 16.03125 C 25.714844 16.140625 25.664062 16.269531 25.664062 16.417969 C 25.664062 16.570312 25.714844 16.699219 25.824219 16.804688 C 25.929688 16.914062 26.058594 16.964844 26.210938 16.964844 Z M 26.210938 16.964844 " fill-opacity="1" fill-rule="nonzero"/></svg>