<svg xmlns="http://www.w3.org/2000/svg" xmlns:xlink="http://www.w3.org/1999/xlink" width="48" zoomAndPan="magnify" viewBox="0 0 36 36.000001" height="48" preserveAspectRatio="xMidYMid meet" version="1.0"><defs><clipPath id="1babc67580"><path d="M 0.488281 26 L 8 26 L 8 35 L 0.488281 35 Z M 0.488281 26 " clip-rule="nonzero"/></clipPath><clipPath id="4514311b1e"><path d="M 3 0 L 35.511719 0 L 35.511719 35 L 3 35 Z M 3 0 " clip-rule="nonzero"/></clipPath></defs><g clip-path="url(#1babc67580)"><path fill="#fda31b" d="M 7.054688 30.648438 C 7.054688 30.300781 6.953125 29.988281 6.75 29.703125 C 6.550781 29.421875 6.285156 29.222656 5.960938 29.109375 L 5.960938 27.363281 C 5.960938 27.214844 5.90625 27.085938 5.800781 26.976562 C 5.691406 26.871094 5.5625 26.816406 5.414062 26.816406 L 2.128906 26.816406 C 1.933594 26.816406 1.746094 26.851562 1.566406 26.917969 C 1.382812 26.980469 1.21875 27.078125 1.070312 27.203125 C 0.921875 27.328125 0.800781 27.472656 0.703125 27.640625 C 0.609375 27.808594 0.542969 27.988281 0.511719 28.179688 C 0.476562 28.367188 0.480469 28.558594 0.515625 28.75 C 0.546875 28.941406 0.613281 29.117188 0.710938 29.285156 C 0.8125 29.453125 0.933594 29.597656 1.082031 29.71875 C 1.234375 29.84375 1.398438 29.9375 1.582031 30 L 1.582031 31.296875 C 1.398438 31.359375 1.234375 31.453125 1.082031 31.578125 C 0.933594 31.699219 0.8125 31.84375 0.710938 32.011719 C 0.613281 32.179688 0.546875 32.359375 0.515625 32.546875 C 0.480469 32.738281 0.476562 32.929688 0.511719 33.121094 C 0.542969 33.308594 0.609375 33.488281 0.703125 33.65625 C 0.800781 33.824219 0.921875 33.972656 1.070312 34.09375 C 1.21875 34.21875 1.382812 34.316406 1.566406 34.382812 C 1.746094 34.445312 1.933594 34.480469 2.128906 34.480469 L 5.414062 34.480469 C 5.5625 34.480469 5.691406 34.425781 5.800781 34.320312 C 5.90625 34.210938 5.960938 34.082031 5.960938 33.933594 L 5.960938 32.191406 C 6.285156 32.074219 6.550781 31.875 6.75 31.59375 C 6.953125 31.308594 7.054688 30.996094 7.054688 30.648438 Z M 2.128906 27.914062 L 4.863281 27.914062 L 4.863281 29.007812 L 2.128906 29.007812 C 1.976562 29.007812 1.847656 28.953125 1.742188 28.847656 C 1.632812 28.738281 1.582031 28.609375 1.582031 28.460938 C 1.582031 28.308594 1.632812 28.179688 1.742188 28.074219 C 1.847656 27.964844 1.976562 27.914062 2.128906 27.914062 Z M 4.863281 33.386719 L 2.128906 33.386719 C 1.976562 33.386719 1.847656 33.332031 1.742188 33.226562 C 1.632812 33.117188 1.582031 32.988281 1.582031 32.835938 C 1.582031 32.6875 1.632812 32.558594 1.742188 32.449219 C 1.847656 32.34375 1.976562 32.289062 2.128906 32.289062 L 4.863281 32.289062 Z M 5.414062 31.195312 L 2.675781 31.195312 L 2.675781 30.101562 L 5.414062 30.101562 C 5.5625 30.101562 5.691406 30.15625 5.800781 30.261719 C 5.90625 30.367188 5.960938 30.496094 5.960938 30.648438 C 5.960938 30.800781 5.90625 30.929688 5.800781 31.035156 C 5.691406 31.140625 5.5625 31.195312 5.414062 31.195312 Z M 5.414062 31.195312 " fill-opacity="1" fill-rule="nonzero"/></g><g clip-path="url(#4514311b1e)"><path fill="#fda31b" d="M 34.9375 13.765625 L 34.6875 4.609375 C 34.683594 4.433594 34.644531 4.261719 34.574219 4.097656 C 34.5 3.9375 34.402344 3.792969 34.273438 3.671875 C 34.148438 3.546875 34 3.453125 33.835938 3.382812 C 33.671875 3.316406 33.5 3.285156 33.324219 3.285156 C 33.148438 3.285156 32.976562 3.316406 32.8125 3.382812 C 32.648438 3.453125 32.5 3.546875 32.375 3.671875 C 32.246094 3.792969 32.148438 3.9375 32.074219 4.097656 C 32.003906 4.261719 31.964844 4.433594 31.960938 4.609375 L 31.691406 14.304688 L 26.941406 20.78125 L 23.28125 17.644531 C 23.234375 17.601562 23.179688 17.570312 23.117188 17.546875 L 18.785156 15.921875 L 16.359375 14.46875 L 16.359375 12.714844 C 16.804688 12.359375 17.167969 11.929688 17.445312 11.429688 C 17.628906 11.472656 17.8125 11.492188 18 11.492188 C 18.273438 11.511719 18.535156 11.472656 18.792969 11.386719 C 19.050781 11.296875 19.28125 11.164062 19.488281 10.984375 C 19.691406 10.804688 19.855469 10.59375 19.976562 10.351562 C 20.097656 10.105469 20.167969 9.847656 20.1875 9.578125 L 20.1875 4.925781 C 20.1875 4.636719 20.160156 4.355469 20.105469 4.070312 C 20.046875 3.789062 19.964844 3.515625 19.855469 3.25 C 19.746094 2.984375 19.609375 2.734375 19.449219 2.496094 C 19.289062 2.253906 19.109375 2.035156 18.90625 1.832031 C 18.703125 1.628906 18.480469 1.445312 18.242188 1.285156 C 18.003906 1.128906 17.75 0.992188 17.484375 0.882812 C 17.21875 0.773438 16.945312 0.6875 16.664062 0.632812 C 16.382812 0.574219 16.097656 0.546875 15.8125 0.546875 L 11.433594 0.546875 C 11.1875 0.546875 10.945312 0.589844 10.714844 0.667969 C 10.480469 0.75 10.269531 0.867188 10.074219 1.019531 C 9.882812 1.171875 9.71875 1.355469 9.585938 1.5625 C 9.453125 1.769531 9.359375 1.992188 9.300781 2.234375 C 8.984375 2.289062 8.691406 2.398438 8.414062 2.5625 C 8.136719 2.722656 7.894531 2.925781 7.691406 3.171875 C 7.484375 3.417969 7.328125 3.691406 7.21875 3.992188 C 7.109375 4.292969 7.054688 4.605469 7.054688 4.925781 L 7.054688 9.578125 C 7.074219 9.847656 7.144531 10.105469 7.265625 10.351562 C 7.386719 10.59375 7.550781 10.804688 7.753906 10.984375 C 7.960938 11.164062 8.191406 11.296875 8.449219 11.386719 C 8.707031 11.472656 8.972656 11.511719 9.242188 11.492188 C 9.429688 11.492188 9.613281 11.472656 9.796875 11.429688 C 10.078125 11.929688 10.4375 12.359375 10.886719 12.714844 L 10.886719 14.46875 L 8.457031 15.921875 L 6.257812 16.75 C 5.890625 16.886719 5.554688 17.078125 5.25 17.316406 C 4.941406 17.554688 4.679688 17.835938 4.457031 18.15625 C 4.234375 18.476562 4.0625 18.824219 3.949219 19.195312 C 3.832031 19.566406 3.773438 19.945312 3.769531 20.335938 L 3.769531 25.175781 C 3.769531 25.328125 3.824219 25.457031 3.929688 25.5625 C 4.039062 25.667969 4.167969 25.722656 4.316406 25.722656 C 4.46875 25.722656 4.597656 25.667969 4.703125 25.5625 C 4.8125 25.457031 4.863281 25.328125 4.863281 25.175781 L 4.863281 20.335938 C 4.867188 19.765625 5.03125 19.246094 5.355469 18.78125 C 5.679688 18.3125 6.109375 17.976562 6.640625 17.773438 L 8.148438 17.207031 L 8.148438 33.386719 L 7.601562 33.386719 C 7.449219 33.386719 7.320312 33.4375 7.214844 33.546875 C 7.109375 33.652344 7.054688 33.78125 7.054688 33.933594 C 7.054688 34.082031 7.109375 34.210938 7.214844 34.320312 C 7.320312 34.425781 7.449219 34.480469 7.601562 34.480469 L 22.925781 34.480469 C 23.078125 34.480469 23.207031 34.425781 23.3125 34.320312 C 23.417969 34.210938 23.472656 34.082031 23.472656 33.933594 L 23.472656 26.550781 L 27.582031 28.296875 C 27.707031 28.351562 27.835938 28.355469 27.96875 28.3125 C 28.097656 28.269531 28.199219 28.1875 28.269531 28.070312 L 35.242188 16.160156 C 35.46875 15.773438 35.550781 15.355469 35.496094 14.914062 C 35.441406 14.46875 35.253906 14.085938 34.9375 13.765625 Z M 33.324219 4.378906 C 33.398438 4.378906 33.460938 4.402344 33.511719 4.453125 C 33.5625 4.503906 33.589844 4.566406 33.59375 4.640625 L 33.828125 13.203125 C 33.480469 13.140625 33.144531 13.175781 32.816406 13.308594 L 33.054688 4.640625 C 33.058594 4.566406 33.085938 4.503906 33.136719 4.453125 C 33.1875 4.402344 33.25 4.378906 33.324219 4.378906 Z M 13.019531 20.25 L 14.222656 20.25 L 15.234375 29.847656 L 13.621094 31.058594 L 12.007812 29.847656 Z M 14.386719 19.15625 L 12.855469 19.15625 L 12.417969 18.328125 L 13.621094 17.605469 L 14.824219 18.328125 Z M 14.503906 16.855469 L 15.894531 15.464844 L 17.664062 16.527344 L 16.273438 17.917969 Z M 10.335938 9.304688 L 10.335938 7.0625 C 11.035156 6.960938 11.632812 6.667969 12.136719 6.171875 C 13.664062 6.804688 15.253906 7.117188 16.90625 7.105469 L 16.90625 9.304688 C 16.90625 9.738281 16.820312 10.160156 16.65625 10.5625 C 16.488281 10.964844 16.25 11.316406 15.945312 11.625 C 15.636719 11.933594 15.28125 12.171875 14.878906 12.335938 C 14.476562 12.503906 14.058594 12.585938 13.621094 12.585938 C 13.1875 12.585938 12.765625 12.503906 12.363281 12.335938 C 11.960938 12.171875 11.609375 11.933594 11.300781 11.625 C 10.992188 11.316406 10.753906 10.964844 10.585938 10.5625 C 10.421875 10.160156 10.335938 9.738281 10.335938 9.304688 Z M 18 10.398438 C 17.953125 10.394531 17.90625 10.390625 17.859375 10.382812 C 17.953125 10.03125 18 9.667969 18 9.304688 L 18 8.757812 C 18.59375 8.757812 19.09375 9.132812 19.09375 9.578125 C 19.09375 10.023438 18.59375 10.398438 18 10.398438 Z M 9.789062 3.285156 C 9.941406 3.285156 10.070312 3.230469 10.175781 3.125 C 10.285156 3.015625 10.335938 2.886719 10.335938 2.738281 C 10.339844 2.589844 10.367188 2.453125 10.421875 2.316406 C 10.476562 2.183594 10.554688 2.066406 10.660156 1.960938 C 10.761719 1.859375 10.878906 1.78125 11.015625 1.726562 C 11.148438 1.667969 11.289062 1.640625 11.433594 1.640625 L 15.8125 1.640625 C 16.246094 1.640625 16.664062 1.726562 17.066406 1.894531 C 17.46875 2.058594 17.824219 2.296875 18.132812 2.605469 C 18.441406 2.914062 18.675781 3.265625 18.84375 3.667969 C 19.011719 4.070312 19.09375 4.492188 19.09375 4.925781 L 19.09375 7.929688 C 18.75 7.75 18.386719 7.664062 18 7.664062 L 18 6.566406 C 18 6.417969 17.945312 6.289062 17.839844 6.179688 C 17.734375 6.074219 17.605469 6.019531 17.453125 6.019531 C 13.875 6.019531 12.296875 5.027344 12.285156 5.019531 C 12.152344 4.929688 12.011719 4.90625 11.855469 4.941406 C 11.703125 4.976562 11.585938 5.0625 11.507812 5.195312 C 11.039062 6 9.800781 6.019531 9.789062 6.019531 C 9.640625 6.019531 9.511719 6.074219 9.402344 6.179688 C 9.296875 6.289062 9.242188 6.417969 9.242188 6.566406 L 9.242188 7.664062 C 8.855469 7.664062 8.492188 7.75 8.148438 7.929688 L 8.148438 4.925781 C 8.148438 4.707031 8.191406 4.5 8.273438 4.296875 C 8.359375 4.097656 8.476562 3.917969 8.628906 3.765625 C 8.785156 3.609375 8.960938 3.492188 9.164062 3.410156 C 9.363281 3.324219 9.574219 3.285156 9.789062 3.285156 Z M 9.242188 10.398438 C 8.648438 10.398438 8.148438 10.023438 8.148438 9.578125 C 8.148438 9.132812 8.648438 8.757812 9.242188 8.757812 L 9.242188 9.304688 C 9.246094 9.667969 9.292969 10.03125 9.382812 10.382812 C 9.335938 10.390625 9.289062 10.394531 9.242188 10.398438 Z M 13.621094 13.683594 C 14.191406 13.683594 14.738281 13.574219 15.261719 13.359375 L 15.261719 14.550781 L 13.621094 16.191406 L 11.980469 14.550781 L 11.980469 13.359375 C 12.507812 13.574219 13.054688 13.683594 13.621094 13.683594 Z M 11.347656 15.464844 L 12.738281 16.855469 L 10.96875 17.917969 L 9.578125 16.527344 Z M 9.242188 17.738281 L 10.5 18.996094 C 10.585938 19.082031 10.695312 19.136719 10.820312 19.152344 C 10.941406 19.164062 11.058594 19.140625 11.167969 19.078125 L 11.480469 18.890625 L 11.964844 19.808594 L 10.886719 30.042969 C 10.867188 30.25 10.9375 30.414062 11.105469 30.539062 L 13.292969 32.179688 C 13.511719 32.34375 13.730469 32.34375 13.949219 32.179688 L 16.140625 30.539062 C 16.304688 30.414062 16.375 30.25 16.355469 30.042969 L 15.277344 19.808594 L 15.765625 18.890625 L 16.078125 19.078125 C 16.183594 19.140625 16.300781 19.164062 16.425781 19.152344 C 16.550781 19.136719 16.65625 19.082031 16.746094 18.996094 L 18 17.738281 L 18 33.386719 L 9.242188 33.386719 Z M 27.566406 27.097656 L 23.472656 25.363281 L 23.472656 22.988281 C 23.472656 22.835938 23.417969 22.707031 23.3125 22.597656 C 23.207031 22.492188 23.078125 22.4375 22.925781 22.4375 C 22.773438 22.4375 22.644531 22.492188 22.539062 22.597656 C 22.433594 22.707031 22.378906 22.835938 22.378906 22.988281 L 22.378906 33.386719 L 19.09375 33.386719 L 19.09375 17.207031 L 22.644531 18.539062 L 26.292969 21.667969 L 25.765625 22.386719 C 25.675781 22.507812 25.640625 22.644531 25.664062 22.792969 C 25.6875 22.945312 25.761719 23.0625 25.882812 23.152344 C 26.003906 23.242188 26.140625 23.273438 26.289062 23.253906 C 26.4375 23.230469 26.558594 23.15625 26.648438 23.035156 L 31.402344 16.554688 L 33.027344 17.773438 Z M 34.296875 15.605469 L 33.585938 16.824219 L 32.046875 15.667969 L 32.808594 14.628906 C 32.949219 14.4375 33.136719 14.320312 33.371094 14.28125 C 33.605469 14.238281 33.820312 14.28125 34.019531 14.414062 C 34.214844 14.542969 34.34375 14.722656 34.394531 14.953125 C 34.449219 15.183594 34.417969 15.402344 34.296875 15.605469 Z M 34.296875 15.605469 " fill-opacity="1" fill-rule="nonzero"/></g></svg>