<svg xmlns="http://www.w3.org/2000/svg" xmlns:xlink="http://www.w3.org/1999/xlink" width="48" zoomAndPan="magnify" viewBox="0 0 36 36.000001" height="48" preserveAspectRatio="xMidYMid meet" version="1.0"><path fill="#fda31b" d="M 20.222656 14.433594 C 20.136719 14.347656 20.09375 14.246094 20.09375 14.125 C 20.09375 14.003906 20.136719 13.898438 20.222656 13.816406 C 20.363281 13.675781 20.523438 13.566406 20.707031 13.488281 C 20.886719 13.414062 21.078125 13.375 21.273438 13.375 C 21.472656 13.375 21.664062 13.414062 21.84375 13.488281 C 22.027344 13.566406 22.1875 13.675781 22.324219 13.816406 C 22.410156 13.898438 22.453125 14.003906 22.453125 14.125 C 22.453125 14.246094 22.410156 14.347656 22.324219 14.433594 C 22.238281 14.519531 22.136719 14.558594 22.015625 14.558594 C 21.894531 14.558594 21.792969 14.519531 21.707031 14.433594 C 21.589844 14.316406 21.445312 14.257812 21.277344 14.257812 C 21.113281 14.257812 20.96875 14.316406 20.851562 14.433594 C 20.765625 14.519531 20.664062 14.558594 20.542969 14.558594 C 20.421875 14.558594 20.320312 14.519531 20.234375 14.433594 Z M 14.304688 14.433594 C 14.421875 14.316406 14.566406 14.253906 14.730469 14.253906 C 14.898438 14.253906 15.042969 14.316406 15.160156 14.433594 C 15.246094 14.511719 15.347656 14.546875 15.464844 14.546875 C 15.578125 14.542969 15.679688 14.5 15.761719 14.417969 C 15.84375 14.332031 15.886719 14.234375 15.886719 14.117188 C 15.890625 14.003906 15.851562 13.902344 15.777344 13.816406 C 15.636719 13.675781 15.476562 13.566406 15.292969 13.488281 C 15.113281 13.414062 14.921875 13.375 14.726562 13.375 C 14.527344 13.375 14.335938 13.414062 14.15625 13.488281 C 13.972656 13.566406 13.8125 13.675781 13.675781 13.816406 C 13.589844 13.898438 13.546875 14.003906 13.546875 14.125 C 13.546875 14.246094 13.589844 14.347656 13.675781 14.433594 C 13.761719 14.523438 13.867188 14.566406 13.988281 14.566406 C 14.113281 14.566406 14.21875 14.523438 14.304688 14.433594 Z M 18 16.8125 C 18.121094 16.8125 18.222656 16.769531 18.308594 16.683594 C 18.394531 16.597656 18.4375 16.496094 18.4375 16.375 L 18.4375 14.972656 C 18.4375 14.851562 18.394531 14.75 18.308594 14.664062 C 18.222656 14.578125 18.121094 14.535156 18 14.535156 C 17.878906 14.535156 17.777344 14.578125 17.691406 14.664062 C 17.605469 14.75 17.5625 14.851562 17.5625 14.972656 L 17.5625 16.375 C 17.5625 16.496094 17.605469 16.597656 17.691406 16.683594 C 17.777344 16.769531 17.878906 16.8125 18 16.8125 Z M 18 19.140625 C 18.769531 19.144531 19.421875 18.871094 19.964844 18.324219 C 20.050781 18.242188 20.09375 18.136719 20.09375 18.019531 C 20.09375 17.898438 20.050781 17.792969 19.964844 17.710938 C 19.878906 17.625 19.777344 17.582031 19.65625 17.582031 C 19.535156 17.582031 19.433594 17.625 19.347656 17.710938 C 19.167969 17.886719 18.964844 18.023438 18.730469 18.121094 C 18.496094 18.21875 18.253906 18.265625 18 18.265625 C 17.746094 18.265625 17.503906 18.21875 17.269531 18.121094 C 17.035156 18.023438 16.832031 17.886719 16.652344 17.710938 C 16.566406 17.625 16.464844 17.582031 16.34375 17.582031 C 16.222656 17.582031 16.121094 17.625 16.035156 17.710938 C 15.949219 17.792969 15.90625 17.898438 15.90625 18.019531 C 15.90625 18.136719 15.949219 18.242188 16.035156 18.324219 C 16.574219 18.875 17.230469 19.148438 18 19.148438 Z M 33.582031 21.28125 C 33.695312 21.371094 33.75 21.488281 33.75 21.632812 L 33.75 31.398438 C 33.746094 31.636719 33.628906 31.777344 33.398438 31.824219 L 27.105469 33.277344 C 27.074219 33.28125 27.042969 33.28125 27.007812 33.277344 L 5.097656 33.277344 C 4.8125 33.273438 4.535156 33.21875 4.273438 33.109375 C 4.007812 33 3.777344 32.84375 3.574219 32.644531 C 3.371094 32.441406 3.214844 32.210938 3.105469 31.949219 C 2.996094 31.683594 2.941406 31.410156 2.9375 31.125 L 2.9375 20.359375 C 2.472656 19.769531 2.242188 19.101562 2.238281 18.355469 L 2.238281 15.992188 C 2.238281 15.835938 2.269531 15.6875 2.328125 15.542969 C 2.386719 15.402344 2.472656 15.273438 2.582031 15.164062 C 2.691406 15.054688 2.820312 14.96875 2.960938 14.910156 C 3.105469 14.851562 3.253906 14.820312 3.410156 14.820312 L 5.777344 14.820312 L 5.777344 13.011719 C 5.773438 12.667969 5.886719 12.363281 6.113281 12.101562 C 6.339844 11.839844 6.625 11.6875 6.96875 11.644531 C 7.15625 11.621094 7.339844 11.640625 7.523438 11.695312 C 7.703125 11.753906 7.863281 11.84375 8.003906 11.972656 C 8.144531 12.097656 8.253906 12.246094 8.332031 12.417969 C 8.410156 12.589844 8.449219 12.769531 8.449219 12.960938 L 8.449219 18.464844 C 8.449219 19.191406 8.222656 19.835938 7.765625 20.398438 L 7.765625 25.21875 C 8.433594 24.265625 9.304688 23.5625 10.382812 23.117188 L 10.382812 16.296875 C 10.195312 16.167969 10.027344 16.015625 9.875 15.84375 C 9.726562 15.671875 9.597656 15.484375 9.492188 15.28125 C 9.386719 15.078125 9.308594 14.867188 9.253906 14.644531 C 9.199219 14.425781 9.171875 14.199219 9.171875 13.96875 C 9.171875 13.742188 9.199219 13.515625 9.253906 13.296875 C 9.308594 13.074219 9.386719 12.863281 9.492188 12.660156 C 9.597656 12.457031 9.726562 12.269531 9.875 12.097656 C 10.027344 11.925781 10.195312 11.773438 10.382812 11.644531 L 10.382812 9.386719 C 10.390625 8.894531 10.449219 8.402344 10.554688 7.921875 C 10.660156 7.4375 10.8125 6.96875 11.007812 6.515625 C 11.207031 6.0625 11.445312 5.632812 11.722656 5.222656 C 12.003906 4.816406 12.320312 4.441406 12.675781 4.09375 C 13.027344 3.746094 13.410156 3.4375 13.824219 3.167969 C 14.238281 2.898438 14.671875 2.667969 15.132812 2.480469 C 15.589844 2.292969 16.0625 2.152344 16.546875 2.058594 C 17.03125 1.960938 17.519531 1.914062 18.015625 1.914062 C 18.511719 1.914062 19 1.960938 19.484375 2.058594 C 19.96875 2.152344 20.441406 2.292969 20.898438 2.480469 C 21.359375 2.667969 21.792969 2.898438 22.207031 3.167969 C 22.621094 3.4375 23.003906 3.746094 23.355469 4.09375 C 23.710938 4.441406 24.027344 4.816406 24.308594 5.222656 C 24.585938 5.632812 24.824219 6.0625 25.023438 6.515625 C 25.21875 6.96875 25.371094 7.4375 25.476562 7.921875 C 25.582031 8.402344 25.640625 8.894531 25.648438 9.386719 L 25.648438 11.644531 C 25.835938 11.773438 26.003906 11.925781 26.15625 12.097656 C 26.304688 12.269531 26.433594 12.457031 26.539062 12.660156 C 26.644531 12.863281 26.722656 13.074219 26.777344 13.296875 C 26.832031 13.515625 26.859375 13.742188 26.859375 13.96875 C 26.859375 14.199219 26.832031 14.425781 26.777344 14.644531 C 26.722656 14.867188 26.644531 15.078125 26.539062 15.28125 C 26.433594 15.484375 26.304688 15.671875 26.15625 15.84375 C 26.003906 16.015625 25.835938 16.167969 25.648438 16.296875 L 25.648438 22.832031 C 25.835938 22.949219 26 23.097656 26.140625 23.269531 C 26.46875 22.871094 26.882812 22.617188 27.386719 22.507812 L 33.214844 21.207031 C 33.351562 21.171875 33.476562 21.199219 33.582031 21.289062 Z M 26.578125 24.394531 L 26.929688 24.394531 L 32.851562 23.035156 L 32.851562 22.179688 L 27.578125 23.363281 C 27.316406 23.40625 27.09375 23.523438 26.910156 23.71875 C 26.722656 23.910156 26.617188 24.136719 26.585938 24.402344 Z M 21.433594 32.414062 L 18.871094 31.824219 C 18.640625 31.777344 18.523438 31.636719 18.523438 31.398438 L 18.523438 26.351562 L 16.902344 26.351562 L 18.238281 32.414062 Z M 21.113281 11.875 C 20.855469 11.90625 20.609375 11.984375 20.382812 12.109375 C 20.152344 12.234375 19.957031 12.398438 19.789062 12.601562 C 19.625 12.800781 19.5 13.027344 19.417969 13.273438 C 19.339844 13.523438 19.308594 13.777344 19.324219 14.035156 C 19.339844 14.296875 19.40625 14.546875 19.515625 14.78125 C 19.628906 15.015625 19.78125 15.222656 19.972656 15.402344 C 20.164062 15.578125 20.378906 15.714844 20.621094 15.808594 C 20.867188 15.90625 21.117188 15.953125 21.378906 15.949219 C 21.640625 15.949219 21.890625 15.898438 22.132812 15.800781 C 22.375 15.703125 22.589844 15.5625 22.777344 15.382812 C 22.96875 15.203125 23.117188 14.996094 23.222656 14.757812 C 23.332031 14.519531 23.394531 14.269531 23.40625 14.011719 L 23.40625 13.761719 C 23.382812 13.339844 23.238281 12.960938 22.976562 12.628906 C 22.71875 12.296875 22.386719 12.066406 21.984375 11.9375 C 21.679688 11.929688 21.386719 11.910156 21.113281 11.875 Z M 19.574219 11.601562 C 17.632812 11.132812 16.707031 10.335938 16.273438 9.714844 C 15.832031 10.234375 15.3125 10.65625 14.714844 10.980469 C 15.058594 10.988281 15.390625 11.054688 15.714844 11.179688 C 16.035156 11.300781 16.324219 11.476562 16.585938 11.707031 C 16.84375 11.933594 17.054688 12.199219 17.222656 12.5 C 17.386719 12.800781 17.496094 13.125 17.546875 13.464844 L 18.484375 13.464844 C 18.597656 12.699219 18.960938 12.078125 19.574219 11.601562 Z M 12.625 14.011719 C 12.632812 14.1875 12.667969 14.359375 12.722656 14.523438 C 12.777344 14.691406 12.851562 14.851562 12.949219 14.996094 C 13.042969 15.144531 13.15625 15.277344 13.285156 15.398438 C 13.417969 15.515625 13.558594 15.617188 13.714844 15.699219 C 13.871094 15.78125 14.035156 15.839844 14.207031 15.878906 C 14.378906 15.917969 14.550781 15.9375 14.726562 15.929688 C 14.902344 15.925781 15.074219 15.898438 15.246094 15.847656 C 15.414062 15.796875 15.574219 15.726562 15.722656 15.636719 C 15.875 15.546875 16.011719 15.4375 16.132812 15.3125 C 16.257812 15.183594 16.359375 15.042969 16.445312 14.890625 C 16.535156 14.738281 16.597656 14.574219 16.644531 14.40625 C 16.6875 14.234375 16.710938 14.0625 16.710938 13.886719 C 16.710938 13.710938 16.6875 13.539062 16.644531 13.367188 C 16.597656 13.195312 16.535156 13.035156 16.445312 12.882812 C 16.359375 12.726562 16.257812 12.589844 16.132812 12.460938 C 16.011719 12.335938 15.875 12.226562 15.722656 12.136719 C 15.574219 12.046875 15.414062 11.972656 15.246094 11.925781 C 15.074219 11.875 14.902344 11.847656 14.726562 11.84375 C 14.550781 11.835938 14.378906 11.855469 14.207031 11.894531 C 14.035156 11.933594 13.871094 11.992188 13.714844 12.074219 C 13.558594 12.15625 13.417969 12.257812 13.285156 12.375 C 13.15625 12.496094 13.042969 12.628906 12.949219 12.773438 C 12.851562 12.921875 12.777344 13.082031 12.722656 13.246094 C 12.667969 13.414062 12.632812 13.585938 12.625 13.761719 Z M 12.625 15.984375 C 12.632812 16.332031 12.675781 16.675781 12.75 17.011719 C 12.824219 17.351562 12.933594 17.683594 13.070312 18 C 13.210938 18.320312 13.378906 18.621094 13.578125 18.90625 C 13.773438 19.195312 14 19.457031 14.246094 19.699219 C 14.496094 19.941406 14.765625 20.160156 15.058594 20.351562 C 15.347656 20.539062 15.65625 20.703125 15.976562 20.832031 C 16.300781 20.964844 16.628906 21.0625 16.972656 21.128906 C 17.3125 21.195312 17.65625 21.230469 18.003906 21.230469 C 18.351562 21.230469 18.699219 21.195312 19.039062 21.128906 C 19.378906 21.0625 19.710938 20.964844 20.035156 20.832031 C 20.355469 20.703125 20.664062 20.539062 20.953125 20.351562 C 21.246094 20.160156 21.515625 19.941406 21.761719 19.699219 C 22.011719 19.457031 22.234375 19.195312 22.433594 18.90625 C 22.632812 18.621094 22.800781 18.320312 22.9375 18 C 23.078125 17.683594 23.183594 17.351562 23.261719 17.011719 C 23.335938 16.675781 23.378906 16.332031 23.386719 15.984375 C 22.996094 16.359375 22.535156 16.609375 22.003906 16.730469 C 21.472656 16.847656 20.945312 16.820312 20.429688 16.644531 C 19.914062 16.472656 19.480469 16.175781 19.132812 15.757812 C 18.78125 15.34375 18.566406 14.863281 18.484375 14.324219 L 17.546875 14.324219 C 17.464844 14.863281 17.25 15.34375 16.898438 15.757812 C 16.550781 16.175781 16.117188 16.472656 15.601562 16.644531 C 15.085938 16.820312 14.5625 16.847656 14.03125 16.730469 C 13.496094 16.609375 13.035156 16.359375 12.644531 15.984375 Z M 24.691406 23.339844 L 19.402344 22.179688 L 19.402344 23.039062 L 25.324219 24.402344 L 25.675781 24.402344 C 25.632812 23.976562 25.417969 23.675781 25.03125 23.492188 L 25.003906 23.492188 C 24.910156 23.4375 24.804688 23.394531 24.699219 23.363281 Z M 19.402344 31.050781 L 24.835938 32.300781 L 24.835938 25.191406 L 19.402344 23.9375 Z M 16.175781 21.792969 L 16.175781 23.003906 L 16.714844 25.457031 L 18.535156 25.457031 L 18.535156 22.023438 C 18.351562 22.066406 18.1875 22.066406 18 22.066406 C 17.378906 22.066406 16.769531 21.976562 16.175781 21.792969 Z M 24.773438 16.714844 C 24.582031 16.769531 24.390625 16.800781 24.191406 16.816406 C 24.019531 17.859375 23.609375 18.800781 22.960938 19.636719 C 22.316406 20.472656 21.507812 21.105469 20.539062 21.535156 L 24.773438 22.480469 Z M 25.984375 13.972656 C 25.980469 13.734375 25.941406 13.503906 25.855469 13.28125 C 25.773438 13.058594 25.652344 12.855469 25.496094 12.675781 C 25.339844 12.496094 25.160156 12.351562 24.949219 12.238281 C 24.742188 12.121094 24.519531 12.046875 24.285156 12.015625 L 24.285156 15.917969 C 24.519531 15.882812 24.738281 15.808594 24.949219 15.695312 C 25.15625 15.582031 25.335938 15.4375 25.492188 15.257812 C 25.648438 15.082031 25.769531 14.878906 25.851562 14.660156 C 25.9375 14.4375 25.980469 14.210938 25.984375 13.972656 Z M 11.269531 11.226562 C 11.523438 11.152344 11.78125 11.117188 12.042969 11.117188 C 12.0625 11.117188 12.078125 11.117188 12.097656 11.117188 C 12.207031 11.089844 15.25 10.273438 15.949219 8.621094 C 16.039062 8.414062 16.191406 8.328125 16.414062 8.355469 C 16.632812 8.386719 16.757812 8.511719 16.789062 8.730469 C 16.789062 8.730469 17.136719 10.484375 21.132812 10.980469 L 21.402344 10.980469 C 21.664062 10.980469 21.921875 11.015625 22.175781 11.085938 C 22.691406 11.117188 23.253906 11.128906 23.871094 11.117188 C 23.898438 11.117188 23.925781 11.117188 23.953125 11.117188 C 23.980469 11.117188 24.007812 11.117188 24.035156 11.117188 C 24.296875 11.117188 24.554688 11.152344 24.804688 11.226562 L 24.804688 9.386719 C 24.796875 8.949219 24.742188 8.519531 24.648438 8.089844 C 24.554688 7.664062 24.421875 7.25 24.246094 6.847656 C 24.074219 6.445312 23.863281 6.066406 23.613281 5.707031 C 23.367188 5.34375 23.085938 5.011719 22.773438 4.707031 C 22.460938 4.402344 22.121094 4.128906 21.753906 3.886719 C 21.390625 3.648438 21.003906 3.445312 20.597656 3.28125 C 20.195312 3.117188 19.777344 2.992188 19.347656 2.90625 C 18.917969 2.824219 18.484375 2.78125 18.046875 2.78125 C 17.609375 2.78125 17.175781 2.824219 16.746094 2.90625 C 16.316406 2.992188 15.902344 3.117188 15.496094 3.28125 C 15.089844 3.445312 14.707031 3.648438 14.339844 3.886719 C 13.972656 4.128906 13.632812 4.402344 13.320312 4.707031 C 13.007812 5.011719 12.730469 5.34375 12.480469 5.707031 C 12.230469 6.066406 12.019531 6.445312 11.847656 6.847656 C 11.671875 7.25 11.539062 7.664062 11.445312 8.089844 C 11.351562 8.519531 11.296875 8.949219 11.289062 9.386719 Z M 10.050781 13.972656 C 10.050781 14.210938 10.09375 14.441406 10.175781 14.664062 C 10.261719 14.886719 10.378906 15.089844 10.535156 15.269531 C 10.695312 15.449219 10.875 15.59375 11.085938 15.707031 C 11.296875 15.820312 11.519531 15.894531 11.753906 15.925781 L 11.753906 12.011719 C 11.519531 12.042969 11.292969 12.117188 11.085938 12.230469 C 10.875 12.34375 10.691406 12.492188 10.535156 12.671875 C 10.378906 12.851562 10.257812 13.054688 10.175781 13.277344 C 10.089844 13.503906 10.046875 13.734375 10.050781 13.972656 Z M 11.257812 22.839844 C 11.792969 22.710938 12.332031 22.648438 12.882812 22.648438 L 15.300781 22.648438 L 15.300781 21.445312 C 14.378906 21 13.617188 20.367188 13.003906 19.550781 C 12.394531 18.734375 12.003906 17.820312 11.839844 16.8125 C 11.640625 16.800781 11.449219 16.765625 11.257812 16.710938 Z M 5.28125 20.6875 C 5.582031 20.695312 5.871094 20.644531 6.152344 20.539062 C 6.433594 20.429688 6.679688 20.269531 6.894531 20.0625 C 7.113281 19.851562 7.277344 19.609375 7.394531 19.332031 C 7.511719 19.054688 7.570312 18.765625 7.574219 18.464844 L 7.574219 17.957031 L 5.414062 17.957031 C 5.3125 17.957031 5.226562 17.996094 5.152344 18.066406 C 5.078125 18.140625 5.042969 18.226562 5.042969 18.328125 C 5.042969 18.433594 5.078125 18.519531 5.152344 18.59375 C 5.226562 18.664062 5.3125 18.699219 5.414062 18.699219 L 6.0625 18.699219 C 6.183594 18.699219 6.285156 18.742188 6.371094 18.828125 C 6.457031 18.914062 6.5 19.019531 6.5 19.140625 C 6.5 19.257812 6.457031 19.363281 6.371094 19.449219 C 6.285156 19.535156 6.183594 19.578125 6.0625 19.578125 L 5.414062 19.578125 C 5.25 19.574219 5.089844 19.542969 4.9375 19.480469 C 4.785156 19.417969 4.652344 19.328125 4.535156 19.210938 C 4.417969 19.09375 4.328125 18.957031 4.265625 18.804688 C 4.203125 18.652344 4.171875 18.496094 4.171875 18.328125 C 4.171875 18.210938 4.191406 18.09375 4.226562 17.980469 L 3.128906 17.980469 L 3.128906 18.355469 C 3.121094 18.648438 3.171875 18.9375 3.277344 19.210938 C 3.382812 19.488281 3.539062 19.734375 3.738281 19.953125 C 3.9375 20.167969 4.171875 20.339844 4.4375 20.46875 C 4.707031 20.59375 4.988281 20.667969 5.28125 20.6875 Z M 6.683594 15.257812 L 6.683594 16.375 C 6.679688 16.625 6.613281 16.859375 6.484375 17.074219 L 7.585938 17.074219 L 7.585938 12.960938 C 7.589844 12.820312 7.542969 12.703125 7.4375 12.609375 C 7.335938 12.519531 7.21875 12.480469 7.085938 12.496094 C 6.964844 12.515625 6.867188 12.574219 6.792969 12.671875 C 6.714844 12.765625 6.679688 12.875 6.683594 12.996094 Z M 3.128906 15.992188 L 3.128906 17.097656 L 4.765625 17.097656 C 5.320312 17.097656 5.792969 16.765625 5.792969 16.375 L 5.792969 15.695312 L 3.425781 15.695312 C 3.34375 15.695312 3.273438 15.726562 3.214844 15.78125 C 3.15625 15.839844 3.128906 15.910156 3.128906 15.992188 Z M 7.332031 32.414062 L 10.234375 32.414062 L 10.234375 26.972656 C 10.234375 26.851562 10.277344 26.746094 10.363281 26.660156 C 10.449219 26.574219 10.550781 26.53125 10.671875 26.53125 C 10.792969 26.53125 10.894531 26.574219 10.980469 26.660156 C 11.066406 26.746094 11.109375 26.851562 11.109375 26.972656 L 11.109375 32.414062 L 17.339844 32.414062 L 15.386719 23.523438 L 12.882812 23.523438 C 10.582031 23.523438 8.777344 24.722656 7.800781 26.902344 C 7.789062 26.914062 7.777344 26.929688 7.769531 26.945312 L 7.769531 29.707031 C 7.769531 29.828125 7.726562 29.929688 7.640625 30.015625 C 7.554688 30.101562 7.453125 30.144531 7.332031 30.144531 C 7.210938 30.144531 7.105469 30.101562 7.019531 30.015625 C 6.9375 29.929688 6.894531 29.828125 6.894531 29.707031 L 6.894531 21.148438 C 6.414062 21.425781 5.902344 21.5625 5.351562 21.5625 L 5.253906 21.5625 C 4.734375 21.546875 4.253906 21.40625 3.8125 21.136719 L 3.8125 31.125 C 3.8125 31.296875 3.84375 31.460938 3.910156 31.617188 C 3.972656 31.773438 4.066406 31.914062 4.1875 32.035156 C 4.308594 32.15625 4.445312 32.25 4.605469 32.316406 C 4.761719 32.378906 4.925781 32.414062 5.097656 32.414062 Z M 26.421875 32.414062 L 26.5625 32.414062 L 26.5625 25.277344 L 25.707031 25.277344 L 25.707031 26.734375 C 25.753906 26.800781 25.78125 26.878906 25.78125 26.964844 L 25.78125 32.414062 Z M 32.871094 23.9375 L 27.4375 25.191406 L 27.4375 32.300781 L 32.871094 31.050781 Z M 32.871094 23.9375 " fill-opacity="1" fill-rule="nonzero"/></svg>